<?xml version="1.0" encoding="UTF-8"?>
<svg id="Layer_1" data-name="Layer 1" xmlns="http://www.w3.org/2000/svg" viewBox="0 0 512 512">
  <defs>
    <style>
      .cls-1 {
        fill: #22b473;
      }
    </style>
  </defs>
  <path class="cls-1" d="M396,234.29l-29.5-29.5s0,.06-.01.09c-.04.24-.09.43-.14.63l-.03.11c-.14.54-.29,1.05-.46,1.51-.1.27-.2.52-.31.77-.22.47-.48.95-.79,1.46-.07.11-.12.21-.18.31-.03.06-.07.12-.1.18l-1.9,2.19c-.27.25-.58.49-.91.74l-.14.11c-.11.08-.2.17-.29.24-.04.03-.07.07-.11.1l-.08.06-.1.08c-.16.15-.31.3-.47.45-3.53,3.53-5.51,8.52-5.44,13.68.07,5.15,2.19,10.07,5.81,13.49l.11.1.12.08c.12.08.24.18.35.28.12.1.23.2.35.3.09.08.22.17.34.27.17.14.34.27.5.42l1.86,2.16c.04.06.08.13.11.2l.13.23c.35.55.61,1.03.82,1.49.11.24.2.5.3.77.18.48.34.98.47,1.51.06.26.13.49.17.73.17.93.25,1.65.24,2.36,0,3.48-1.36,6.75-3.81,9.2-2.46,2.46-5.73,3.82-9.21,3.82-3.48,0-6.76-1.36-9.22-3.82-2.46-2.46-3.82-5.73-3.81-9.2,0-.71.08-1.47.24-2.37.05-.23.11-.49.17-.74.13-.51.28-1,.47-1.51.1-.26.19-.52.31-.77.21-.46.48-.95.78-1.42l.17-.3c.03-.06.06-.11.09-.16l1.94-2.24c.28-.26.61-.51.96-.78l.07-.06c.12-.1.21-.17.29-.25.03-.03.06-.06.1-.08l.11-.07.09-.08c.16-.15.31-.3.47-.45,3.53-3.53,5.51-8.51,5.43-13.68-.08-5.15-2.2-10.07-5.81-13.48l-.1-.1-.12-.08c-.13-.09-.25-.2-.37-.31-.1-.09-.2-.17-.3-.26l-.32-.25c-.19-.15-.38-.3-.56-.46l-1.8-2.07-.03-.06-.04-.04c-.03-.06-.21-.39-.21-.39-.38-.61-.63-1.07-.83-1.51-.11-.24-.2-.5-.3-.76-.18-.48-.34-.99-.48-1.54l-.02-.08c-.05-.21-.11-.42-.15-.65-.16-.89-.24-1.64-.24-2.34,0-3.48,1.36-6.76,3.82-9.22,1.91-1.91,4.32-3.15,6.93-3.61l-72.68-72.68c-12.55-12.55-32.91-12.55-45.46,0l-72.39,72.39c5.95,1.2,10.45,6.48,10.45,12.78,0,.71-.08,1.48-.25,2.35-.04.24-.09.43-.14.63l-.03.11c-.14.54-.29,1.05-.46,1.51-.1.27-.2.52-.31.77-.22.47-.48.95-.79,1.46-.07.11-.12.21-.18.31-.03.06-.07.12-.1.18l-1.9,2.19c-.27.25-.58.49-.91.74l-.14.11c-.11.08-.2.17-.29.24-.04.03-.07.07-.11.1l-.08.06-.1.08c-.16.15-.31.3-.47.45-3.53,3.53-5.51,8.52-5.44,13.68.07,5.15,2.19,10.07,5.81,13.49l.11.1.12.08c.12.08.24.18.35.28.12.1.23.2.35.3.09.08.22.17.34.27.17.14.34.27.5.42l1.86,2.16c.04.06.08.13.11.2l.13.23c.35.55.61,1.03.82,1.49.11.24.2.5.3.77.18.48.34.98.47,1.51.06.26.13.49.17.73.17.93.25,1.65.24,2.36,0,3.48-1.36,6.75-3.81,9.2-2.46,2.46-5.73,3.82-9.21,3.82-3.48,0-6.76-1.36-9.22-3.82-2.46-2.46-3.82-5.73-3.81-9.2,0-.71.08-1.47.24-2.37.05-.23.11-.49.17-.74.13-.51.28-1,.47-1.51.1-.26.19-.52.31-.77.21-.46.48-.95.78-1.42l.17-.3c.03-.06.06-.11.09-.16l1.94-2.24c.28-.26.61-.51.96-.78l.07-.06c.12-.1.21-.17.29-.25.03-.03.06-.06.1-.08l.11-.07.09-.08c.16-.15.31-.3.47-.45,3.53-3.53,5.51-8.51,5.43-13.68-.08-5.15-2.2-10.07-5.81-13.48l-.1-.1-.12-.08c-.13-.09-.25-.2-.37-.31-.1-.09-.2-.17-.3-.26l-.32-.25c-.19-.15-.38-.3-.56-.46l-1.8-2.07-.03-.06-.04-.04c-.03-.06-.21-.39-.21-.39-.38-.61-.63-1.07-.83-1.51-.11-.24-.2-.5-.3-.76-.18-.48-.34-.99-.48-1.54l-.02-.08c-.04-.15-.07-.3-.1-.45l-29.56,29.56c-12.55,12.55-12.55,32.91,0,45.46l98.8,98.8c-.23-.97-.36-1.97-.36-3,0-.73.07-1.48.24-2.35.05-.27.11-.5.16-.74.15-.54.31-1.06.48-1.52.1-.25.19-.51.31-.76.21-.45.47-.93.79-1.46.06-.11.12-.2.17-.3.03-.06.06-.12.1-.18l1.91-2.19c.27-.25.58-.49.92-.75l.13-.1c.08-.06.18-.15.28-.24l.09-.08.11-.08.08-.08c.16-.14.31-.29.46-.44,3.54-3.54,5.52-8.53,5.45-13.71-.07-5.15-2.19-10.06-5.81-13.48l-.11-.1-.13-.09c-.12-.08-.22-.17-.33-.27-.13-.11-.25-.22-.39-.32l-.23-.18c-.2-.16-.39-.31-.58-.48l-1.9-2.22c-.04-.06-.07-.13-.11-.19l-.09-.16c-.3-.48-.59-.98-.82-1.5-.14-.29-.23-.52-.31-.76-.2-.52-.35-1.02-.49-1.56-.06-.23-.12-.46-.16-.71-.17-.91-.25-1.67-.25-2.37,0-1.99.46-3.9,1.3-5.64.05-.13.1-.25.15-.38.21-.45.47-.93.79-1.46.06-.11.12-.2.17-.3.03-.06.06-.12.1-.18l1.91-2.19c.27-.25.58-.49.92-.75l.13-.1c.08-.06.18-.15.28-.24l.09-.08.11-.08.08-.08c.16-.14.31-.29.46-.44,3.54-3.54,5.52-8.53,5.45-13.71-.07-4.75-1.89-9.28-5-12.63-1.14-.6-2.19-1.38-3.13-2.31-2.46-2.46-3.81-5.74-3.81-9.22,0-.73.07-1.48.24-2.35.05-.27.11-.5.16-.74.15-.54.31-1.06.48-1.52.1-.25.19-.51.31-.76.21-.45.47-.93.79-1.46.06-.11.12-.2.17-.3.03-.06.06-.12.1-.18l.51-.58c.4-.54.82-1.06,1.31-1.55.59-.59,1.23-1.11,1.9-1.57.09-.09.18-.17.27-.26,3.54-3.54,5.52-8.53,5.45-13.71-.07-5.15-2.19-10.06-5.81-13.48l-.11-.1-.13-.09c-.12-.08-.22-.17-.33-.27-.13-.11-.25-.22-.39-.32l-.23-.18c-.2-.16-.39-.31-.58-.48l-1.9-2.22c-.04-.06-.07-.13-.11-.19l-.09-.16c-.3-.48-.59-.98-.82-1.5-.14-.29-.23-.52-.31-.76-.2-.52-.35-1.02-.49-1.56-.06-.23-.12-.46-.16-.71-.17-.91-.25-1.67-.25-2.37,0-1.99.46-3.9,1.3-5.64.05-.13.1-.25.15-.38.21-.45.47-.93.79-1.46.06-.11.12-.2.17-.3.03-.06.06-.12.1-.18l1.91-2.19c.27-.25.58-.49.92-.75l.13-.1c.08-.06.18-.15.28-.24l.09-.08.11-.08.08-.08c.16-.14.31-.29.46-.44,3.54-3.54,5.52-8.53,5.45-13.71-.07-5.15-2.19-10.06-5.81-13.48l-.11-.1-.13-.09c-.12-.08-.22-.17-.33-.27-.13-.11-.25-.22-.39-.32l-.23-.18c-.2-.16-.39-.31-.58-.48l-1.9-2.22c-.04-.06-.07-.13-.11-.19l-.09-.16c-.3-.48-.59-.98-.82-1.5-.14-.29-.23-.52-.31-.76-.2-.52-.35-1.02-.49-1.56-.06-.23-.12-.46-.16-.71-.17-.91-.25-1.67-.25-2.37,0-3.48,1.36-6.75,3.82-9.22,2.46-2.46,5.73-3.82,9.21-3.82,7.18,0,13.03,5.85,13.02,13.04,0,.73-.08,1.47-.24,2.36-.05.26-.11.49-.17.72-.13.53-.29,1.04-.47,1.52-.1.26-.2.52-.31.76-.22.48-.48.97-.79,1.45l-.16.28c-.04.06-.07.13-.11.19l-1.92,2.22c-.25.23-.54.45-.84.69l-.21.16c-.07.05-.18.14-.28.23l-.08.07-.13.09-.08.08c-.16.15-.31.29-.46.44-3.54,3.54-5.52,8.53-5.45,13.7.07,5.15,2.19,10.07,5.81,13.49l.11.1.12.08c.12.08.22.18.33.27.13.11.25.22.39.32.07.07.21.18.36.29.16.13.31.24.45.39l.05.05,1.82,2.12c.03.05.19.34.25.43.33.53.59,1.01.8,1.48.12.26.21.49.3.74.19.51.35,1.02.5,1.56.05.23.11.49.17.75.15.84.23,1.6.23,2.33,0,1.98-.45,3.89-1.29,5.62-.05.13-.1.26-.15.38-.22.48-.48.97-.79,1.45l-.16.28c-.04.06-.07.13-.11.19l-1.92,2.22c-.25.23-.54.45-.84.69l-.21.16c-.07.05-.18.14-.28.23l-.08.07-.13.09-.08.08c-.16.15-.31.29-.46.44-3.54,3.54-5.52,8.53-5.45,13.7.07,4.76,1.9,9.3,5.02,12.66,4.11,2.2,6.91,6.53,6.91,11.51,0,.73-.08,1.47-.24,2.36-.05.26-.11.49-.17.72-.13.53-.29,1.04-.47,1.52-.1.26-.2.52-.31.76-.22.48-.48.97-.79,1.45l-.16.28c-.04.06-.07.13-.11.19l-.5.58c-.4.55-.83,1.08-1.32,1.57h0c-.59.59-1.24,1.12-1.92,1.58-.09.08-.17.16-.26.25-3.54,3.54-5.52,8.53-5.45,13.7.07,5.15,2.19,10.07,5.81,13.49l.11.1.12.08c.12.08.22.18.33.27.13.11.25.22.39.32.07.07.21.18.36.29.16.13.31.24.45.39l.05.05,1.82,2.12c.03.05.19.34.25.43.33.53.59,1.01.8,1.48.12.26.21.49.3.74.19.51.35,1.02.5,1.56.05.23.11.49.17.75.15.84.23,1.6.23,2.33,0,1.98-.45,3.89-1.29,5.62-.05.13-.1.26-.15.38-.22.48-.48.97-.79,1.45l-.16.28c-.04.06-.07.13-.11.19l-1.92,2.22c-.25.23-.54.45-.84.69l-.21.16c-.07.05-.18.14-.28.23l-.08.07-.13.09-.08.08c-.16.15-.31.29-.46.44-3.54,3.54-5.52,8.53-5.45,13.7.07,5.15,2.19,10.07,5.81,13.49l.11.1.12.08c.12.08.22.18.33.27.13.11.25.22.39.32.07.07.21.18.36.29.16.13.31.24.45.39l.05.05,1.82,2.12c.03.05.19.34.25.43.33.53.59,1.01.8,1.48.12.26.21.49.3.74.19.51.35,1.02.5,1.56.05.23.11.49.17.75.15.84.23,1.6.23,2.33,0,3.47-1.35,6.75-3.81,9.21h0c-2.46,2.46-5.74,3.82-9.22,3.82-1.02,0-2.02-.13-2.99-.36l8.79,8.79c3.05,3.05,6.57,5.36,10.32,6.93-.71-1.62-1.09-3.39-1.09-5.22,0-.73.07-1.48.24-2.35.05-.27.11-.5.16-.74.15-.54.31-1.06.48-1.52.1-.25.19-.51.31-.76.21-.45.47-.93.79-1.46.06-.11.12-.2.17-.3.03-.06.06-.12.1-.18l1.91-2.19c.27-.25.58-.49.92-.75l.13-.1c.08-.06.18-.15.28-.24l.09-.08.11-.08.08-.08c.16-.14.31-.29.46-.44,3.54-3.54,5.52-8.53,5.45-13.71-.07-5.15-2.19-10.06-5.81-13.48l-.11-.1-.13-.09c-.12-.08-.22-.17-.33-.27-.13-.11-.25-.22-.39-.32l-.23-.18c-.2-.16-.39-.31-.58-.48l-1.9-2.22c-.04-.06-.07-.13-.11-.19l-.09-.16c-.3-.48-.59-.98-.82-1.5-.14-.29-.23-.52-.31-.76-.2-.52-.35-1.02-.49-1.56-.06-.23-.12-.46-.16-.71-.17-.91-.25-1.67-.25-2.37,0-1.99.46-3.9,1.3-5.64.05-.13.1-.25.15-.38.21-.45.47-.93.79-1.46.06-.11.12-.2.17-.3.03-.06.06-.12.1-.18l1.91-2.19c.27-.25.58-.49.92-.75l.13-.1c.08-.06.18-.15.28-.24l.09-.08.11-.08.08-.08c.16-.14.31-.29.46-.44,3.54-3.54,5.52-8.53,5.45-13.71-.07-4.75-1.88-9.28-5-12.63-1.14-.6-2.19-1.38-3.13-2.31-2.46-2.46-3.81-5.74-3.81-9.22,0-.73.07-1.48.24-2.35.05-.27.11-.5.16-.74.15-.54.31-1.06.48-1.52.1-.25.19-.51.31-.76.21-.45.47-.93.79-1.46.06-.11.12-.2.17-.3.03-.06.06-.12.1-.18l.51-.58c.4-.54.82-1.06,1.31-1.55.59-.59,1.23-1.11,1.9-1.57.09-.09.18-.17.27-.26,3.54-3.54,5.52-8.53,5.45-13.71-.07-5.15-2.19-10.06-5.81-13.48l-.11-.1-.13-.09c-.12-.08-.22-.17-.33-.27-.13-.11-.25-.22-.39-.32l-.23-.18c-.2-.16-.39-.31-.58-.48l-1.9-2.22c-.04-.06-.07-.13-.11-.19l-.09-.16c-.3-.48-.59-.98-.82-1.5-.14-.29-.23-.52-.31-.76-.2-.52-.35-1.02-.49-1.56-.06-.23-.12-.46-.16-.71-.17-.91-.25-1.67-.25-2.37,0-1.99.46-3.9,1.3-5.64.05-.13.1-.25.15-.38.21-.45.47-.93.79-1.46.06-.11.12-.2.17-.3.03-.06.06-.12.1-.18l1.91-2.19c.27-.25.58-.49.92-.75l.13-.1c.08-.06.18-.15.28-.24l.09-.08.11-.08.08-.08c.16-.14.31-.29.46-.44,3.54-3.54,5.52-8.53,5.45-13.71-.07-5.15-2.19-10.06-5.81-13.48l-.11-.1-.13-.09c-.12-.08-.22-.17-.33-.27-.13-.11-.25-.22-.39-.32l-.23-.18c-.2-.16-.39-.31-.58-.48l-1.9-2.22c-.04-.06-.07-.13-.11-.19l-.09-.16c-.29-.48-.59-.98-.82-1.5-.14-.29-.23-.52-.31-.76-.2-.52-.35-1.02-.49-1.56-.06-.23-.12-.46-.16-.71-.17-.91-.25-1.67-.25-2.37,0-3.48,1.36-6.75,3.82-9.22,2.46-2.46,5.73-3.82,9.21-3.82,7.18,0,13.03,5.85,13.02,13.04,0,.73-.08,1.47-.24,2.36-.05.26-.11.49-.17.72-.13.53-.29,1.04-.47,1.52-.1.26-.2.52-.31.76-.22.48-.48.97-.79,1.45l-.16.28c-.04.06-.07.13-.11.19l-1.92,2.22c-.25.23-.54.45-.84.69l-.21.16c-.07.05-.18.14-.28.23l-.08.07-.13.09-.08.08c-.16.15-.31.29-.46.44-3.54,3.54-5.52,8.53-5.45,13.7.07,5.15,2.19,10.07,5.81,13.49l.11.1.12.08c.12.08.22.18.33.27.13.11.25.22.39.32.07.07.22.18.36.29.16.13.31.24.45.39l.05.05,1.82,2.12c.03.05.19.34.25.43.33.53.59,1.01.8,1.48.12.26.21.49.3.74.19.51.35,1.02.5,1.56.05.23.11.49.17.75.15.84.23,1.6.23,2.33,0,1.98-.45,3.89-1.29,5.62-.05.13-.1.26-.15.38-.22.48-.48.97-.79,1.45l-.16.28c-.04.06-.07.13-.11.19l-1.92,2.22c-.25.23-.54.45-.84.69l-.21.16c-.07.05-.18.14-.28.23l-.08.07-.13.09-.08.08c-.16.15-.31.29-.46.44-3.54,3.54-5.52,8.53-5.45,13.7.07,4.76,1.9,9.3,5.02,12.66,4.11,2.2,6.91,6.53,6.91,11.51,0,.73-.08,1.47-.24,2.36-.05.26-.11.49-.17.72-.13.53-.29,1.04-.47,1.52-.1.26-.2.52-.31.76-.22.48-.48.97-.79,1.45l-.16.28c-.04.06-.07.13-.11.19l-.5.58c-.4.55-.83,1.08-1.32,1.57h0c-.59.59-1.24,1.12-1.92,1.58-.09.08-.17.16-.26.25-3.54,3.54-5.52,8.53-5.45,13.7.07,5.15,2.19,10.07,5.81,13.49l.11.1.12.08c.12.08.22.18.33.27.13.11.25.22.39.32.07.07.22.18.36.29.16.13.31.24.45.39l.05.05,1.82,2.12c.03.05.19.34.25.43.33.53.59,1.01.8,1.48.12.26.21.49.3.74.19.51.35,1.02.5,1.56.05.23.11.49.17.75.15.84.23,1.6.23,2.33,0,1.98-.45,3.89-1.29,5.62-.05.13-.1.26-.15.38-.22.48-.48.97-.79,1.45l-.16.28c-.04.06-.07.13-.11.19l-1.92,2.22c-.25.23-.54.45-.84.69l-.21.16c-.07.05-.18.14-.28.23l-.08.07-.13.09-.08.08c-.16.15-.31.29-.46.44-3.54,3.54-5.52,8.53-5.45,13.7.07,5.15,2.19,10.07,5.81,13.49l.11.1.12.08c.12.08.22.18.33.27.13.11.25.22.39.32.07.07.22.18.36.29.16.13.31.24.45.39l.05.05,1.82,2.12c.03.05.19.34.25.43.33.53.59,1.01.8,1.48.12.26.21.49.3.74.19.51.35,1.02.5,1.56.05.23.11.49.17.75.15.84.23,1.6.23,2.33,0,2-.46,3.92-1.3,5.66,4.18-1.56,8.11-4.01,11.48-7.38l9.19-9.19c-1.37.48-2.83.75-4.33.75-3.48,0-6.75-1.35-9.21-3.82-2.46-2.46-3.81-5.74-3.81-9.22,0-.73.07-1.48.24-2.35.05-.27.11-.5.16-.74.15-.54.31-1.06.48-1.52.1-.25.19-.51.31-.76.21-.45.47-.93.79-1.46.06-.11.12-.2.17-.3.03-.06.06-.12.1-.18l1.91-2.19c.27-.25.58-.49.92-.75l.13-.1c.08-.06.18-.15.28-.24l.09-.08.11-.08.08-.08c.16-.14.31-.29.46-.44,3.54-3.54,5.52-8.53,5.45-13.71-.07-5.15-2.19-10.06-5.81-13.48l-.11-.1-.13-.09c-.12-.08-.22-.17-.33-.27-.13-.11-.25-.22-.39-.32l-.23-.18c-.2-.16-.39-.31-.58-.48l-1.9-2.22c-.04-.06-.07-.13-.11-.19l-.09-.16c-.3-.48-.59-.98-.82-1.5-.14-.29-.23-.52-.31-.76-.2-.52-.35-1.02-.49-1.56-.06-.23-.12-.46-.16-.71-.17-.91-.25-1.67-.25-2.37,0-1.99.46-3.9,1.3-5.64.05-.13.1-.25.15-.38.21-.45.47-.93.79-1.46.06-.11.12-.2.17-.3.03-.06.06-.12.1-.18l1.91-2.19c.27-.25.58-.49.92-.75l.13-.1c.08-.06.18-.15.28-.24l.09-.08.11-.08.08-.08c.16-.14.31-.29.46-.44,3.54-3.54,5.52-8.53,5.45-13.71-.07-4.75-1.88-9.28-5-12.63-1.14-.6-2.19-1.38-3.13-2.31-2.46-2.46-3.81-5.74-3.81-9.22,0-.73.07-1.48.24-2.35.05-.27.11-.5.16-.74.15-.54.31-1.06.48-1.52.1-.25.19-.51.31-.76.21-.45.47-.93.79-1.46.06-.11.12-.2.17-.3.03-.06.06-.12.1-.18l.51-.58c.4-.54.82-1.06,1.31-1.55.59-.59,1.23-1.11,1.9-1.57.09-.09.18-.17.27-.26,3.54-3.54,5.52-8.53,5.45-13.71-.07-5.15-2.19-10.06-5.81-13.48l-.11-.1-.13-.09c-.12-.08-.22-.17-.33-.27-.13-.11-.25-.22-.39-.32l-.23-.18c-.2-.16-.39-.31-.58-.48l-1.9-2.22c-.04-.06-.07-.13-.11-.19l-.09-.16c-.3-.48-.59-.98-.82-1.5-.14-.29-.23-.52-.31-.76-.2-.52-.35-1.02-.49-1.56-.06-.23-.12-.46-.16-.71-.17-.91-.25-1.67-.25-2.37,0-1.99.46-3.9,1.3-5.64.05-.13.1-.25.15-.38.21-.45.47-.93.79-1.46.06-.11.12-.2.17-.3.03-.06.06-.12.1-.18l1.91-2.19c.27-.25.58-.49.92-.75l.13-.1c.08-.06.18-.15.28-.24l.09-.08.11-.08.08-.08c.16-.14.31-.29.46-.44,3.54-3.54,5.52-8.53,5.45-13.71-.07-5.15-2.19-10.06-5.81-13.48l-.11-.1-.13-.09c-.12-.08-.22-.17-.33-.27-.13-.11-.25-.22-.39-.32l-.23-.18c-.2-.16-.39-.31-.58-.48l-1.9-2.22c-.04-.06-.07-.13-.11-.19l-.09-.16c-.29-.48-.59-.98-.82-1.5-.14-.29-.23-.52-.31-.76-.2-.52-.35-1.02-.49-1.56-.06-.23-.12-.46-.16-.71-.17-.91-.25-1.67-.25-2.37,0-3.48,1.36-6.75,3.82-9.22s5.73-3.82,9.21-3.82c7.18,0,13.02,5.85,13.02,13.04,0,.73-.08,1.47-.24,2.36-.05.26-.11.49-.17.72-.13.53-.29,1.04-.47,1.52-.1.26-.2.52-.31.76-.22.48-.48.97-.79,1.45l-.16.28c-.04.06-.07.13-.11.19l-1.92,2.22c-.25.23-.54.45-.84.69l-.21.16c-.07.05-.18.14-.28.23l-.08.07-.13.09-.08.08c-.16.15-.31.29-.46.44-3.54,3.54-5.52,8.53-5.45,13.7.07,5.15,2.19,10.07,5.81,13.49l.11.1.12.08c.12.08.22.18.33.27.13.11.25.22.39.32.07.07.22.18.36.29.16.13.31.24.45.39l.05.05,1.82,2.12c.03.05.19.34.25.43.33.53.59,1.01.8,1.48.12.26.21.49.3.74.19.51.35,1.02.5,1.56.05.23.11.49.17.75.15.84.23,1.6.23,2.33,0,1.98-.45,3.89-1.29,5.62-.05.13-.1.26-.15.38-.22.48-.48.97-.79,1.45l-.16.28c-.04.06-.07.13-.11.19l-1.92,2.22c-.25.23-.54.45-.84.69l-.21.16c-.07.05-.18.14-.28.23l-.08.07-.13.09-.08.08c-.16.15-.31.29-.46.44-3.54,3.54-5.52,8.53-5.45,13.7.07,4.76,1.9,9.3,5.02,12.66,4.11,2.2,6.91,6.53,6.91,11.51,0,.73-.08,1.47-.24,2.36-.05.26-.11.49-.17.72-.13.53-.29,1.04-.47,1.52-.1.26-.2.52-.31.76-.22.48-.48.97-.79,1.45l-.16.28c-.04.06-.07.13-.11.19l-.5.58c-.4.55-.83,1.08-1.32,1.57h0c-.59.59-1.24,1.12-1.92,1.58-.09.08-.17.16-.26.25-3.54,3.54-5.52,8.53-5.45,13.7.07,5.15,2.19,10.07,5.81,13.49l.11.1.12.08c.12.08.22.18.33.27.13.11.25.22.39.32.07.07.22.18.36.29.16.13.31.24.45.39l.05.05,1.82,2.12c.03.05.19.34.25.43.33.53.59,1.01.8,1.48.12.26.21.49.3.74.19.51.35,1.02.5,1.56.05.23.11.49.17.75.15.84.23,1.6.23,2.33,0,1.98-.45,3.89-1.29,5.62-.05.13-.1.26-.15.38-.22.48-.48.97-.79,1.45l-.16.28c-.04.06-.07.13-.11.19l-1.92,2.22c-.25.23-.54.45-.84.69l-.21.16c-.07.05-.18.14-.28.23l-.08.07-.13.09-.08.08c-.16.15-.31.29-.46.44-3.54,3.54-5.52,8.53-5.45,13.7.07,5.15,2.19,10.07,5.81,13.49l.11.1.12.08c.12.08.22.18.33.27.13.11.25.22.39.32.07.07.22.18.36.29.16.13.31.24.45.39l.05.05,1.82,2.12c.03.05.19.34.25.43.33.53.59,1.01.8,1.48.12.26.21.49.3.74.19.51.35,1.02.5,1.56.05.23.11.49.17.75.15.84.23,1.6.23,2.33,0,1.5-.26,2.95-.75,4.32l100.13-100.13c12.55-12.55,12.55-32.91,0-45.46ZM171.02,236.41c-2.46-2.46-3.82-5.73-3.81-9.21,0-3.49,1.36-6.76,3.82-9.22s5.73-3.82,9.21-3.81c3.48,0,6.76,1.35,9.22,3.82,2.46,2.46,3.82,5.73,3.82,9.22,0,3.48-1.35,6.75-3.81,9.21-2.46,2.46-5.74,3.82-9.22,3.82-3.48,0-6.75-1.35-9.21-3.81ZM215.13,202.52c0,.71-.08,1.48-.25,2.35-.04.24-.09.43-.14.63l-.03.11c-.14.54-.29,1.05-.46,1.51-.1.27-.2.52-.31.77-.22.47-.48.95-.79,1.46-.07.11-.12.21-.18.31-.03.06-.07.12-.1.18l-1.9,2.19c-.27.25-.58.49-.91.74l-.14.11c-.11.08-.2.17-.29.24-.04.03-.07.07-.11.1l-.08.06-.1.08c-.16.15-.31.3-.47.45-3.53,3.53-5.51,8.52-5.44,13.68.07,5.15,2.19,10.07,5.81,13.49l.11.1.12.08c.12.08.24.18.35.28.12.1.23.2.35.3.09.08.22.17.34.27.17.14.34.27.5.42l1.86,2.16c.04.06.08.13.11.2l.13.23c.35.55.61,1.03.82,1.49.11.24.2.5.3.77.18.48.34.98.47,1.51.06.26.13.49.17.73.17.93.25,1.65.24,2.36,0,3.48-1.36,6.75-3.81,9.2-2.46,2.46-5.73,3.82-9.21,3.82-3.48,0-6.76-1.36-9.22-3.82-2.46-2.46-3.82-5.73-3.81-9.2,0-.71.08-1.47.24-2.37.05-.23.11-.49.17-.74.13-.51.28-1,.47-1.51.1-.26.19-.52.31-.77.21-.46.48-.95.78-1.42l.17-.3c.03-.06.06-.11.09-.16l1.94-2.24c.28-.26.61-.51.96-.78l.07-.06c.12-.1.21-.17.29-.25.03-.03.06-.06.1-.08l.11-.07.09-.08c.16-.15.31-.3.47-.45,3.53-3.53,5.51-8.51,5.43-13.68-.08-5.15-2.2-10.07-5.81-13.48l-.1-.1-.12-.08c-.13-.09-.25-.2-.37-.31-.1-.09-.2-.17-.3-.26l-.32-.25c-.19-.15-.38-.3-.56-.46l-1.8-2.07-.03-.06-.04-.04c-.03-.06-.21-.39-.21-.39-.38-.61-.63-1.07-.83-1.51-.11-.24-.2-.5-.3-.76-.18-.48-.34-.99-.48-1.54l-.02-.08c-.05-.21-.11-.42-.15-.65-.16-.89-.24-1.64-.24-2.34,0-3.48,1.36-6.76,3.82-9.22,2.46-2.46,5.73-3.82,9.21-3.82,7.18,0,13.03,5.85,13.03,13.04ZM319.12,260.74c-2.46,2.46-5.73,3.82-9.21,3.82-3.48,0-6.76-1.36-9.22-3.82-2.46-2.46-3.82-5.73-3.81-9.2,0-.71.08-1.47.24-2.37.05-.23.11-.49.17-.74.13-.51.28-1,.47-1.51.1-.26.19-.52.31-.77.21-.46.48-.95.78-1.42l.17-.3c.03-.06.06-.11.09-.16l1.94-2.24c.28-.26.61-.51.96-.78l.07-.06c.12-.1.21-.17.29-.25.03-.03.06-.06.1-.08l.11-.07.09-.08c.16-.15.31-.3.47-.45,3.53-3.53,5.51-8.51,5.43-13.68-.08-5.15-2.2-10.07-5.81-13.48l-.1-.1-.12-.08c-.13-.09-.25-.2-.37-.31-.1-.09-.2-.17-.3-.26l-.32-.25c-.19-.15-.38-.3-.56-.46l-1.8-2.07-.03-.06-.04-.04c-.03-.06-.21-.39-.21-.39-.38-.61-.63-1.07-.83-1.51-.11-.24-.2-.5-.3-.76-.18-.48-.34-.99-.48-1.54l-.02-.08c-.05-.21-.11-.42-.15-.65-.16-.89-.24-1.64-.24-2.34,0-3.48,1.36-6.76,3.82-9.22,2.46-2.46,5.73-3.82,9.21-3.82,7.18,0,13.03,5.85,13.03,13.04,0,.71-.08,1.48-.25,2.35-.04.24-.09.43-.14.63l-.03.11c-.14.54-.29,1.05-.46,1.51-.1.27-.2.52-.31.77-.22.47-.48.95-.79,1.46-.07.11-.12.21-.18.31-.03.06-.07.12-.1.18l-1.9,2.19c-.27.25-.58.49-.91.74l-.14.11c-.11.08-.2.17-.29.24-.04.03-.07.07-.11.1l-.08.06-.1.08c-.16.15-.31.3-.47.45-3.53,3.53-5.51,8.52-5.44,13.68.07,5.15,2.19,10.07,5.81,13.49l.11.1.12.08c.12.08.24.18.35.28.11.1.23.2.35.3.09.08.22.17.34.27.17.14.34.27.5.42l1.86,2.16c.04.06.08.13.11.2l.13.23c.35.55.61,1.03.82,1.49.11.24.2.5.3.77.18.48.34.98.47,1.51.06.26.13.49.17.73.17.93.25,1.65.24,2.36,0,3.48-1.36,6.75-3.81,9.2ZM322.62,236.41c-2.46-2.46-3.82-5.73-3.81-9.21,0-3.49,1.36-6.76,3.82-9.22,2.46-2.46,5.73-3.82,9.21-3.81,3.48,0,6.76,1.35,9.22,3.82s3.82,5.73,3.82,9.22c0,3.48-1.35,6.75-3.81,9.21-2.46,2.46-5.74,3.82-9.22,3.82-3.48,0-6.75-1.35-9.21-3.81Z"/>
</svg>