<?xml version="1.0" encoding="UTF-8"?>
<svg id="Layer_1" data-name="Layer 1" xmlns="http://www.w3.org/2000/svg" viewBox="0 0 841.89 595.28">
  <defs>
    <style>
      .cls-1 {
        fill: #0c2745;
      }

      .cls-2 {
        fill: #22b573;
      }
    </style>
  </defs>
  <path class="cls-2" d="M266.03,291.81l-7.92-7.92s0,.02,0,.02c-.01.06-.02.12-.04.17v.03c-.04.14-.09.28-.13.4-.03.07-.05.14-.08.21-.06.13-.13.25-.21.39-.02.03-.03.06-.05.08,0,.02-.02.03-.03.05l-.51.59c-.07.07-.16.13-.24.2l-.04.03s-.05.04-.08.07c0,0-.02.02-.03.03l-.02.02-.03.02s-.08.08-.13.12c-.95.95-1.48,2.29-1.46,3.67.02,1.38.59,2.7,1.56,3.62l.03.03.03.02s.06.05.09.08c.03.03.06.05.09.08.03.02.06.05.09.07.05.04.09.07.13.11l.5.58s.02.04.03.05l.03.06c.09.15.16.28.22.4.03.06.05.14.08.21.05.13.09.26.13.41.02.07.03.13.05.2.05.25.07.44.07.63,0,.93-.36,1.81-1.02,2.47-.66.66-1.54,1.03-2.47,1.03-.94,0-1.81-.36-2.48-1.03-.66-.66-1.02-1.54-1.02-2.47,0-.19.02-.39.07-.64.01-.06.03-.13.05-.2.03-.14.08-.27.13-.41.03-.07.05-.14.08-.21.06-.12.13-.25.21-.38l.05-.08s.02-.03.02-.04l.52-.6c.08-.07.16-.14.26-.21h.02s.06-.06.08-.08c0,0,.02-.02.03-.02l.03-.02.02-.02s.08-.08.13-.12c.95-.95,1.48-2.29,1.46-3.67-.02-1.38-.59-2.7-1.56-3.62l-.03-.03-.03-.02s-.07-.05-.1-.08c-.03-.02-.05-.05-.08-.07l-.08-.07c-.05-.04-.1-.08-.15-.12l-.48-.56v-.02s-.02-.01-.02-.01c0-.01-.06-.1-.06-.1-.1-.16-.17-.29-.22-.4-.03-.06-.05-.13-.08-.2-.05-.13-.09-.27-.13-.41v-.02c-.02-.06-.03-.11-.05-.17-.04-.24-.07-.44-.06-.63,0-.94.36-1.81,1.03-2.48.51-.51,1.16-.85,1.86-.97l-19.52-19.52c-3.37-3.37-8.84-3.37-12.21,0l-19.44,19.44c1.6.32,2.81,1.74,2.81,3.43,0,.19-.02.4-.07.63-.01.06-.02.12-.04.17v.03c-.04.14-.09.28-.13.4-.03.07-.05.14-.08.21-.06.13-.13.25-.21.39-.02.03-.03.06-.05.08,0,.02-.02.03-.03.05l-.51.59c-.07.07-.16.13-.24.2l-.04.03s-.05.04-.08.07c0,0-.02.02-.03.03l-.02.02-.03.02s-.08.08-.13.12c-.95.95-1.48,2.29-1.46,3.67.02,1.38.59,2.7,1.56,3.62l.03.03.03.02s.06.05.09.08c.03.03.06.05.09.08.03.02.06.05.09.07.05.04.09.07.13.11l.5.58s.02.04.03.05l.03.06c.09.15.16.28.22.4.03.06.05.14.08.21.05.13.09.26.13.41.02.07.03.13.05.2.05.25.07.44.07.63,0,.93-.36,1.81-1.02,2.47s-1.54,1.03-2.47,1.03c-.94,0-1.81-.36-2.48-1.03-.66-.66-1.02-1.54-1.02-2.47,0-.19.02-.39.07-.64.01-.06.03-.13.05-.2.03-.14.08-.27.13-.41.03-.07.05-.14.08-.21.06-.12.13-.25.21-.38l.05-.08s.02-.03.02-.04l.52-.6c.08-.07.16-.14.26-.21h.02s.06-.06.08-.08c0,0,.02-.02.03-.02l.03-.02.02-.02s.08-.08.13-.12c.95-.95,1.48-2.29,1.46-3.67-.02-1.38-.59-2.7-1.56-3.62l-.03-.03-.03-.02s-.07-.05-.1-.08c-.03-.02-.05-.05-.08-.07l-.08-.07c-.05-.04-.1-.08-.15-.12l-.48-.56v-.02s-.02-.01-.02-.01c0-.01-.06-.1-.06-.1-.1-.16-.17-.29-.22-.4-.03-.06-.05-.13-.08-.2-.05-.13-.09-.27-.13-.41v-.02s-.02-.08-.03-.12l-7.94,7.94c-3.37,3.37-3.37,8.84,0,12.21l26.53,26.53c-.06-.26-.1-.53-.1-.81,0-.2.02-.4.07-.63.01-.07.03-.13.04-.2.04-.14.08-.28.13-.41.03-.07.05-.14.08-.21.06-.12.13-.25.21-.39.02-.03.03-.05.05-.08,0-.02.02-.03.03-.05l.51-.59c.07-.07.16-.13.25-.2l.04-.03s.05-.04.08-.06l.02-.02.03-.02.02-.02s.08-.08.12-.12c.95-.95,1.48-2.29,1.46-3.68-.02-1.38-.59-2.7-1.56-3.62l-.03-.03-.03-.02s-.06-.05-.09-.07c-.03-.03-.07-.06-.1-.09l-.06-.05c-.05-.04-.1-.08-.16-.13l-.51-.59s-.02-.03-.03-.05l-.02-.04c-.08-.13-.16-.26-.22-.4-.04-.08-.06-.14-.08-.21-.05-.14-.09-.27-.13-.42-.02-.06-.03-.12-.04-.19-.05-.25-.07-.45-.07-.64,0-.53.12-1.05.35-1.52.01-.03.03-.07.04-.1.06-.12.13-.25.21-.39.02-.03.03-.05.05-.08,0-.02.02-.03.03-.05l.51-.59c.07-.07.16-.13.25-.2l.04-.03s.05-.04.08-.06l.02-.02.03-.02.02-.02s.08-.08.12-.12c.95-.95,1.48-2.29,1.46-3.68-.02-1.27-.51-2.49-1.34-3.39-.31-.16-.59-.37-.84-.62-.66-.66-1.02-1.54-1.02-2.47,0-.2.02-.4.07-.63.01-.07.03-.13.04-.2.04-.14.08-.28.13-.41.03-.07.05-.14.08-.21.06-.12.13-.25.21-.39.02-.03.03-.05.05-.08,0-.02.02-.03.03-.05l.14-.16c.11-.15.22-.29.35-.42.16-.16.33-.3.51-.42.02-.02.05-.05.07-.07.95-.95,1.48-2.29,1.46-3.68-.02-1.38-.59-2.7-1.56-3.62l-.03-.03-.03-.02s-.06-.05-.09-.07c-.03-.03-.07-.06-.1-.09l-.06-.05c-.05-.04-.1-.08-.16-.13l-.51-.59s-.02-.03-.03-.05l-.02-.04c-.08-.13-.16-.26-.22-.4-.04-.08-.06-.14-.08-.21-.05-.14-.09-.27-.13-.42-.02-.06-.03-.12-.04-.19-.05-.25-.07-.45-.07-.64,0-.53.12-1.05.35-1.52.01-.03.03-.07.04-.1.06-.12.13-.25.21-.39.02-.03.03-.05.05-.08,0-.02.02-.03.03-.05l.51-.59c.07-.07.16-.13.25-.2l.04-.03s.05-.04.08-.06l.02-.02.03-.02.02-.02s.08-.08.12-.12c.95-.95,1.48-2.29,1.46-3.68-.02-1.38-.59-2.7-1.56-3.62l-.03-.03-.03-.02s-.06-.05-.09-.07c-.03-.03-.07-.06-.1-.09l-.06-.05c-.05-.04-.1-.08-.16-.13l-.51-.59s-.02-.03-.03-.05l-.02-.04c-.08-.13-.16-.26-.22-.4-.04-.08-.06-.14-.08-.21-.05-.14-.09-.27-.13-.42-.02-.06-.03-.12-.04-.19-.05-.25-.07-.45-.07-.64,0-.93.36-1.81,1.03-2.48s1.54-1.03,2.47-1.03c1.93,0,3.5,1.57,3.5,3.5,0,.2-.02.4-.07.63-.01.07-.03.13-.04.19-.04.14-.08.28-.13.41-.03.07-.05.14-.08.2-.06.13-.13.26-.21.39l-.04.08s-.02.03-.03.05l-.52.6c-.07.06-.14.12-.23.19l-.06.04s-.05.04-.07.06l-.02.02-.03.02-.02.02s-.08.08-.12.12c-.95.95-1.48,2.29-1.46,3.68.02,1.38.59,2.7,1.56,3.62l.03.03.03.02s.06.05.09.07c.03.03.07.06.1.09.02.02.06.05.1.08.04.03.08.07.12.1h.01s.49.58.49.58c0,.01.05.09.07.12.09.14.16.27.22.4.03.07.06.13.08.2.05.14.09.27.13.42.01.06.03.13.04.2.04.23.06.43.06.62,0,.53-.12,1.04-.35,1.51-.01.03-.03.07-.04.1-.06.13-.13.26-.21.39l-.04.08s-.02.03-.03.05l-.52.6c-.07.06-.14.12-.23.19l-.06.04s-.05.04-.07.06l-.02.02-.03.02-.02.02s-.08.08-.12.12c-.95.95-1.48,2.29-1.46,3.68.02,1.28.51,2.5,1.35,3.4,1.1.59,1.86,1.75,1.86,3.09,0,.2-.02.4-.07.63-.01.07-.03.13-.04.19-.04.14-.08.28-.13.41-.03.07-.05.14-.08.2-.06.13-.13.26-.21.39l-.04.08s-.02.03-.03.05l-.14.16c-.11.15-.22.29-.35.42h0c-.16.16-.33.3-.51.42-.02.02-.05.04-.07.07-.95.95-1.48,2.29-1.46,3.68.02,1.38.59,2.7,1.56,3.62l.03.03.03.02s.06.05.09.07c.03.03.07.06.1.09.02.02.06.05.1.08.04.03.08.07.12.1h.01s.49.58.49.58c0,.01.05.09.07.12.09.14.16.27.22.4.03.07.06.13.08.2.05.14.09.27.13.42.01.06.03.13.04.2.04.23.06.43.06.62,0,.53-.12,1.04-.35,1.51-.01.03-.03.07-.04.1-.06.13-.13.26-.21.39l-.04.08s-.02.03-.03.05l-.52.6c-.07.06-.14.12-.23.19l-.06.04s-.05.04-.07.06l-.02.02-.03.02-.02.02s-.08.08-.12.12c-.95.95-1.48,2.29-1.46,3.68.02,1.38.59,2.7,1.56,3.62l.03.03.03.02s.06.05.09.07c.03.03.07.06.1.09.02.02.06.05.1.08.04.03.08.07.12.1h.01s.49.58.49.58c0,.01.05.09.07.12.09.14.16.27.22.4.03.07.06.13.08.2.05.14.09.27.13.42.01.06.03.13.04.2.04.23.06.43.06.62,0,.93-.36,1.81-1.02,2.47h0c-.66.66-1.54,1.03-2.48,1.03-.27,0-.54-.03-.8-.1l2.36,2.36c.82.82,1.76,1.44,2.77,1.86-.19-.44-.29-.91-.29-1.4,0-.2.02-.4.07-.63.01-.07.03-.13.04-.2.04-.14.08-.28.13-.41.03-.07.05-.14.08-.21.06-.12.13-.25.21-.39.02-.03.03-.05.05-.08,0-.02.02-.03.03-.05l.51-.59c.07-.07.16-.13.25-.2l.04-.03s.05-.04.08-.06l.02-.02.03-.02.02-.02s.08-.08.12-.12c.95-.95,1.48-2.29,1.46-3.68-.02-1.38-.59-2.7-1.56-3.62l-.03-.03-.03-.02s-.06-.05-.09-.07c-.03-.03-.07-.06-.1-.09l-.06-.05c-.05-.04-.1-.08-.16-.13l-.51-.59s-.02-.03-.03-.05l-.02-.04c-.08-.13-.16-.26-.22-.4-.04-.08-.06-.14-.08-.21-.05-.14-.09-.27-.13-.42-.02-.06-.03-.12-.04-.19-.05-.25-.07-.45-.07-.64,0-.53.12-1.05.35-1.52.01-.03.03-.07.04-.1.06-.12.13-.25.21-.39.02-.03.03-.05.05-.08,0-.02.02-.03.03-.05l.51-.59c.07-.07.16-.13.25-.2l.04-.03s.05-.04.08-.06l.02-.02.03-.02.02-.02s.08-.08.12-.12c.95-.95,1.48-2.29,1.46-3.68-.02-1.27-.51-2.49-1.34-3.39-.31-.16-.59-.37-.84-.62-.66-.66-1.02-1.54-1.02-2.47,0-.2.02-.4.07-.63.01-.07.03-.13.04-.2.04-.14.08-.28.13-.41.03-.07.05-.14.08-.21.06-.12.13-.25.21-.39.02-.03.03-.05.05-.08,0-.02.02-.03.03-.05l.14-.16c.11-.15.22-.29.35-.42.16-.16.33-.3.51-.42.02-.02.05-.05.07-.07.95-.95,1.48-2.29,1.46-3.68-.02-1.38-.59-2.7-1.56-3.62l-.03-.03-.03-.02s-.06-.05-.09-.07c-.03-.03-.07-.06-.1-.09l-.06-.05c-.05-.04-.1-.08-.16-.13l-.51-.59s-.02-.03-.03-.05l-.02-.04c-.08-.13-.16-.26-.22-.4-.04-.08-.06-.14-.08-.21-.05-.14-.09-.27-.13-.42-.02-.06-.03-.12-.04-.19-.05-.25-.07-.45-.07-.64,0-.53.12-1.05.35-1.52.01-.03.03-.07.04-.1.06-.12.13-.25.21-.39.02-.03.03-.05.05-.08,0-.02.02-.03.03-.05l.51-.59c.07-.07.16-.13.25-.2l.04-.03s.05-.04.08-.06l.02-.02.03-.02.02-.02s.08-.08.12-.12c.95-.95,1.48-2.29,1.46-3.68-.02-1.38-.59-2.7-1.56-3.62l-.03-.03-.03-.02s-.06-.05-.09-.07c-.03-.03-.07-.06-.1-.09l-.06-.05c-.05-.04-.1-.08-.16-.13l-.51-.59s-.02-.03-.03-.05l-.02-.04c-.08-.13-.16-.26-.22-.4-.04-.08-.06-.14-.08-.21-.05-.14-.09-.27-.13-.42-.02-.06-.03-.12-.04-.19-.05-.25-.07-.45-.07-.64,0-.93.36-1.81,1.03-2.48s1.54-1.03,2.47-1.03c1.93,0,3.5,1.57,3.5,3.5,0,.2-.02.4-.07.63-.01.07-.03.13-.04.19-.04.14-.08.28-.13.41-.03.07-.05.14-.08.2-.06.13-.13.26-.21.39l-.04.08s-.02.03-.03.05l-.52.6c-.07.06-.14.12-.23.19l-.06.04s-.05.04-.07.06l-.02.02-.03.02-.02.02s-.08.08-.12.12c-.95.95-1.48,2.29-1.46,3.68.02,1.38.59,2.7,1.56,3.62l.03.03.03.02s.06.05.09.07c.03.03.07.06.1.09.02.02.06.05.1.08.04.03.08.07.12.1h.01s.49.58.49.58c0,.01.05.09.07.12.09.14.16.27.22.4.03.07.06.13.08.2.05.14.09.27.13.42.01.06.03.13.04.2.04.23.06.43.06.62,0,.53-.12,1.04-.35,1.51-.01.03-.03.07-.04.1-.06.13-.13.26-.21.39l-.04.08s-.02.03-.03.05l-.52.6c-.07.06-.14.12-.23.19l-.06.04s-.05.04-.07.06l-.02.02-.03.02-.02.02s-.08.08-.12.12c-.95.95-1.48,2.29-1.46,3.68.02,1.28.51,2.5,1.35,3.4,1.1.59,1.86,1.75,1.86,3.09,0,.2-.02.4-.07.63-.01.07-.03.13-.04.19-.04.14-.08.28-.13.41-.03.07-.05.14-.08.2-.06.13-.13.26-.21.39l-.04.08s-.02.03-.03.05l-.14.16c-.11.15-.22.29-.36.42h0c-.16.16-.33.3-.51.42-.02.02-.05.04-.07.07-.95.95-1.48,2.29-1.46,3.68.02,1.38.59,2.7,1.56,3.62l.03.03.03.02s.06.05.09.07c.03.03.07.06.1.09.02.02.06.05.1.08.04.03.08.07.12.1h.01s.49.58.49.58c0,.01.05.09.07.12.09.14.16.27.22.4.03.07.06.13.08.2.05.14.09.27.13.42.01.06.03.13.04.2.04.23.06.43.06.62,0,.53-.12,1.04-.35,1.51-.01.03-.03.07-.04.1-.06.13-.13.26-.21.39l-.04.08s-.02.03-.03.05l-.52.6c-.07.06-.14.12-.23.19l-.06.04s-.05.04-.07.06l-.02.02-.03.02-.02.02s-.08.08-.12.12c-.95.95-1.48,2.29-1.46,3.68.02,1.38.59,2.7,1.56,3.62l.03.03.03.02s.06.05.09.07c.03.03.07.06.1.09.02.02.06.05.1.08.04.03.08.07.12.1h.01s.49.58.49.58c0,.01.05.09.07.12.09.14.16.27.22.4.03.07.06.13.08.2.05.14.09.27.13.42.01.06.03.13.04.2.04.23.06.43.06.62,0,.54-.12,1.05-.35,1.52,1.12-.42,2.18-1.08,3.08-1.98l2.47-2.47c-.37.13-.76.2-1.16.2-.93,0-1.81-.36-2.47-1.03-.66-.66-1.02-1.54-1.02-2.47,0-.2.02-.4.07-.63.01-.07.03-.13.04-.2.04-.14.08-.28.13-.41.03-.07.05-.14.08-.21.06-.12.13-.25.21-.39.02-.03.03-.05.05-.08,0-.02.02-.03.03-.05l.51-.59c.07-.07.16-.13.25-.2l.04-.03s.05-.04.08-.06l.02-.02.03-.02.02-.02s.08-.08.12-.12c.95-.95,1.48-2.29,1.46-3.68-.02-1.38-.59-2.7-1.56-3.62l-.03-.03-.03-.02s-.06-.05-.09-.07c-.03-.03-.07-.06-.1-.09l-.06-.05c-.05-.04-.1-.08-.16-.13l-.51-.59s-.02-.03-.03-.05l-.02-.04c-.08-.13-.16-.26-.22-.4-.04-.08-.06-.14-.08-.21-.05-.14-.09-.27-.13-.42-.02-.06-.03-.12-.04-.19-.05-.25-.07-.45-.07-.64,0-.53.12-1.05.35-1.52.01-.03.03-.07.04-.1.06-.12.13-.25.21-.39.02-.03.03-.05.05-.08,0-.02.02-.03.03-.05l.51-.59c.07-.07.16-.13.25-.2l.04-.03s.05-.04.08-.06l.02-.02.03-.02.02-.02s.08-.08.12-.12c.95-.95,1.48-2.29,1.46-3.68-.02-1.27-.51-2.49-1.34-3.39-.31-.16-.59-.37-.84-.62-.66-.66-1.02-1.54-1.02-2.47,0-.2.02-.4.07-.63.01-.07.03-.13.04-.2.04-.14.08-.28.13-.41.03-.07.05-.14.08-.21.06-.12.13-.25.21-.39.02-.03.03-.05.05-.08,0-.02.02-.03.03-.05l.14-.16c.11-.15.22-.29.35-.42.16-.16.33-.3.51-.42.02-.02.05-.05.07-.07.95-.95,1.48-2.29,1.46-3.68-.02-1.38-.59-2.7-1.56-3.62l-.03-.03-.03-.02s-.06-.05-.09-.07c-.03-.03-.07-.06-.1-.09l-.06-.05c-.05-.04-.1-.08-.16-.13l-.51-.59s-.02-.03-.03-.05l-.02-.04c-.08-.13-.16-.26-.22-.4-.04-.08-.06-.14-.08-.21-.05-.14-.09-.27-.13-.42-.02-.06-.03-.12-.04-.19-.05-.25-.07-.45-.07-.64,0-.53.12-1.05.35-1.52.01-.03.03-.07.04-.1.06-.12.13-.25.21-.39.02-.03.03-.05.05-.08,0-.02.02-.03.03-.05l.51-.59c.07-.07.16-.13.25-.2l.04-.03s.05-.04.08-.06l.02-.02.03-.02.02-.02s.08-.08.12-.12c.95-.95,1.48-2.29,1.46-3.68-.02-1.38-.59-2.7-1.56-3.62l-.03-.03-.03-.02s-.06-.05-.09-.07c-.03-.03-.07-.06-.1-.09l-.06-.05c-.05-.04-.1-.08-.16-.13l-.51-.59s-.02-.03-.03-.05l-.02-.04c-.08-.13-.16-.26-.22-.4-.04-.08-.06-.14-.08-.21-.05-.14-.09-.27-.13-.42-.02-.06-.03-.12-.04-.19-.05-.25-.07-.45-.07-.64,0-.93.36-1.81,1.03-2.48s1.54-1.03,2.47-1.03c1.93,0,3.5,1.57,3.5,3.5,0,.2-.02.4-.07.63-.01.07-.03.13-.04.19-.04.14-.08.28-.13.41-.03.07-.05.14-.08.2-.06.13-.13.26-.21.39l-.04.08s-.02.03-.03.05l-.52.6c-.07.06-.14.12-.23.19l-.06.04s-.05.04-.07.06l-.02.02-.03.02-.02.02s-.08.08-.12.12c-.95.95-1.48,2.29-1.46,3.68.02,1.38.59,2.7,1.56,3.62l.03.03.03.02s.06.05.09.07c.03.03.07.06.1.09.02.02.06.05.1.08.04.03.08.07.12.1h.01s.49.58.49.58c0,.01.05.09.07.12.09.14.16.27.22.4.03.07.06.13.08.2.05.14.09.27.13.42.01.06.03.13.04.2.04.23.06.43.06.62,0,.53-.12,1.04-.35,1.51-.01.03-.03.07-.04.1-.06.13-.13.26-.21.39l-.04.08s-.02.03-.03.05l-.52.6c-.07.06-.14.12-.23.19l-.06.04s-.05.04-.07.06l-.02.02-.03.02-.02.02s-.08.08-.12.12c-.95.95-1.48,2.29-1.46,3.68.02,1.28.51,2.5,1.35,3.4,1.1.59,1.86,1.75,1.86,3.09,0,.2-.02.4-.07.63-.01.07-.03.13-.04.19-.04.14-.08.28-.13.41-.03.07-.05.14-.08.2-.06.13-.13.26-.21.39l-.04.08s-.02.03-.03.05l-.14.16c-.11.15-.22.29-.36.42h0c-.16.16-.33.3-.51.42-.02.02-.05.04-.07.07-.95.95-1.48,2.29-1.46,3.68.02,1.38.59,2.7,1.56,3.62l.03.03.03.02s.06.05.09.07c.03.03.07.06.1.09.02.02.06.05.1.08.04.03.08.07.12.1h.01s.49.58.49.58c0,.01.05.09.07.12.09.14.16.27.22.4.03.07.06.13.08.2.05.14.09.27.13.42.01.06.03.13.04.2.04.23.06.43.06.62,0,.53-.12,1.04-.35,1.51-.01.03-.03.07-.04.1-.06.13-.13.26-.21.39l-.04.08s-.02.03-.03.05l-.52.6c-.07.06-.14.12-.23.19l-.06.04s-.05.04-.07.06l-.02.02-.03.02-.02.02s-.08.08-.12.12c-.95.95-1.48,2.29-1.46,3.68.02,1.38.59,2.7,1.56,3.62l.03.03.03.02s.06.05.09.07c.03.03.07.06.1.09.02.02.06.05.1.08.04.03.08.07.12.1h.01s.49.58.49.58c0,.01.05.09.07.12.09.14.16.27.22.4.03.07.06.13.08.2.05.14.09.27.13.42.01.06.03.13.04.2.04.23.06.43.06.62,0,.4-.07.79-.2,1.16l26.89-26.89c3.37-3.37,3.37-8.84,0-12.21ZM205.61,292.38c-.66-.66-1.02-1.54-1.02-2.47,0-.94.36-1.82,1.03-2.48s1.54-1.02,2.47-1.02c.94,0,1.81.36,2.48,1.02.66.66,1.03,1.54,1.03,2.48,0,.93-.36,1.81-1.02,2.47s-1.54,1.03-2.48,1.03c-.93,0-1.81-.36-2.47-1.02ZM217.45,283.28c0,.19-.02.4-.07.63-.01.06-.02.12-.04.17v.03c-.04.14-.09.28-.13.4-.03.07-.05.14-.08.21-.06.13-.13.25-.21.39-.02.03-.03.06-.05.08,0,.02-.02.03-.03.05l-.51.59c-.07.07-.16.13-.24.2l-.04.03s-.05.04-.08.07c0,0-.02.02-.03.03l-.02.02-.03.02s-.08.08-.13.12c-.95.95-1.48,2.29-1.46,3.67.02,1.38.59,2.7,1.56,3.62l.03.03.03.02s.06.05.09.08c.03.03.06.05.09.08.03.02.06.05.09.07.05.04.09.07.13.11l.5.58s.02.04.03.05l.03.06c.09.15.16.28.22.4.03.06.05.14.08.21.05.13.09.26.13.41.02.07.03.13.05.2.05.25.07.44.07.63,0,.93-.36,1.81-1.02,2.47s-1.54,1.03-2.47,1.03c-.94,0-1.81-.36-2.48-1.03-.66-.66-1.02-1.54-1.02-2.47,0-.19.02-.39.07-.64.01-.06.03-.13.05-.2.03-.14.08-.27.13-.41.03-.07.05-.14.08-.21.06-.12.13-.25.21-.38l.05-.08s.02-.03.02-.04l.52-.6c.08-.07.16-.14.26-.21h.02s.06-.06.08-.08c0,0,.02-.02.03-.02l.03-.02.02-.02s.08-.08.13-.12c.95-.95,1.48-2.29,1.46-3.67-.02-1.38-.59-2.7-1.56-3.62l-.03-.03-.03-.02s-.07-.05-.1-.08c-.03-.02-.05-.05-.08-.07l-.08-.07c-.05-.04-.1-.08-.15-.12l-.48-.56v-.02s-.02-.01-.02-.01c0-.01-.06-.1-.06-.1-.1-.16-.17-.29-.22-.4-.03-.06-.05-.13-.08-.2-.05-.13-.09-.27-.13-.41v-.02c-.02-.06-.03-.11-.05-.17-.04-.24-.07-.44-.06-.63,0-.94.36-1.81,1.03-2.48s1.54-1.03,2.47-1.03c1.93,0,3.5,1.57,3.5,3.5ZM245.38,298.91c-.66.66-1.54,1.03-2.47,1.03-.94,0-1.81-.36-2.48-1.03-.66-.66-1.02-1.54-1.02-2.47,0-.19.02-.39.07-.64.01-.06.03-.13.05-.2.03-.14.08-.27.13-.41.03-.07.05-.14.08-.21.06-.12.13-.25.21-.38l.05-.08s.02-.03.02-.04l.52-.6c.08-.07.16-.14.26-.21h.02s.06-.06.08-.08c0,0,.02-.02.03-.02l.03-.02.02-.02s.08-.08.13-.12c.95-.95,1.48-2.29,1.46-3.67-.02-1.38-.59-2.7-1.56-3.62l-.03-.03-.03-.02s-.07-.05-.1-.08c-.03-.02-.05-.05-.08-.07l-.08-.07c-.05-.04-.1-.08-.15-.12l-.48-.56v-.02s-.02-.01-.02-.01c0-.01-.06-.1-.06-.1-.1-.16-.17-.29-.22-.4-.03-.06-.05-.13-.08-.2-.05-.13-.09-.27-.13-.41v-.02c-.02-.06-.03-.11-.05-.17-.04-.24-.07-.44-.06-.63,0-.94.36-1.81,1.03-2.48.66-.66,1.54-1.03,2.47-1.03,1.93,0,3.5,1.57,3.5,3.5,0,.19-.02.4-.07.63-.01.06-.02.12-.04.17v.03c-.04.14-.09.28-.13.4-.03.07-.05.14-.08.21-.06.13-.13.25-.21.39-.02.03-.03.06-.05.08,0,.02-.02.03-.03.05l-.51.59c-.07.07-.16.13-.24.2l-.04.03s-.05.04-.08.07c0,0-.02.02-.03.03l-.02.02-.03.02s-.08.08-.13.12c-.95.95-1.48,2.29-1.46,3.67.02,1.38.59,2.7,1.56,3.62l.03.03.03.02s.06.05.09.08c.03.03.06.05.09.08.03.02.06.05.09.07.05.04.09.07.13.11l.5.58s.02.04.03.05l.03.06c.09.15.16.28.22.4.03.06.05.14.08.21.05.13.09.26.13.41.02.07.03.13.05.2.05.25.07.44.07.63,0,.93-.36,1.81-1.02,2.47ZM246.32,292.38c-.66-.66-1.02-1.54-1.02-2.47,0-.94.36-1.82,1.03-2.48.66-.66,1.54-1.02,2.47-1.02.94,0,1.81.36,2.48,1.02s1.03,1.54,1.03,2.48c0,.93-.36,1.81-1.02,2.47s-1.54,1.03-2.48,1.03c-.93,0-1.81-.36-2.47-1.02Z"/>
  <g>
    <path class="cls-1" d="M295.05,284.88v-6.9c0-.55.45-1,1-1h37.84c.55,0,1,.45,1,1v6.9c0,.55-.45,1-1,1h-15.42v31.41c0,.55-.45,1-1,1h-5c-.55,0-1-.45-1-1v-31.41h-15.42c-.55,0-1-.45-1-1Z"/>
    <path class="cls-1" d="M341.57,276.98h34.1c.55,0,1,.45,1,1v6.9c0,.55-.45,1-1,1h-34.1c-.55,0-1-.45-1-1v-6.9c0-.55.45-1,1-1ZM341.57,293.19h34.1c.55,0,1,.45,1,1v6.9c0,.55-.45,1-1,1h-34.1c-.55,0-1-.45-1-1v-6.9c0-.55.45-1,1-1ZM341.57,309.39h34.1c.55,0,1,.45,1,1v6.9c0,.55-.45,1-1,1h-34.1c-.55,0-1-.45-1-1v-6.9c0-.55.45-1,1-1Z"/>
    <path class="cls-1" d="M413.33,276.98h4.99c.55,0,1,.45,1,1v39.31c0,.55-.45,1-1,1h-5.97l-.02-.02-22.98-28.78v27.8c0,.55-.45,1-1,1h-4.99c-.55,0-1-.45-1-1v-39.31c0-.55.45-1,1-1h5.98l.02.02,22.98,28.78v-27.8c0-.55.45-1,1-1Z"/>
    <path class="cls-1" d="M432,276.98h24.38c5.47,0,9.95,5.69,9.95,12.65v16.01c0,6.96-4.48,12.65-9.95,12.65h-11.58s-2.56,0-2.56,0h-17.24v-7.9c0-.55.45-1,1-1h30.37c1.62,0,2.95-1.69,2.95-3.75v-16.01c0-2.06-1.33-3.75-2.95-3.75h-14.13s-10.25,0-10.25,0h-5.99c-.55,0-1-.45-1-1v-6.9c0-.55.45-1,1-1h5.99Z"/>
    <path class="cls-1" d="M472.99,276.98h34.1c.55,0,1,.45,1,1v6.9c0,.55-.45,1-1,1h-34.1c-.55,0-1-.45-1-1v-6.9c0-.55.45-1,1-1ZM472.99,293.19h34.1c.55,0,1,.45,1,1v6.9c0,.55-.45,1-1,1h-34.1c-.55,0-1-.45-1-1v-6.9c0-.55.45-1,1-1ZM472.99,309.39h34.1c.55,0,1,.45,1,1v6.9c0,.55-.45,1-1,1h-34.1c-.55,0-1-.45-1-1v-6.9c0-.55.45-1,1-1Z"/>
    <path class="cls-1" d="M523.97,277.36l10.99,13.98,10.99-13.98c.19-.24.48-.38.79-.38h7.36c.83,0,1.3.96.79,1.62l-14.97,19.04,14.97,19.04c.52.66.05,1.62-.79,1.62h-7.36c-.31,0-.6-.14-.79-.38l-10.99-13.98-10.99,13.98c-.19.24-.48.38-.79.38h-7.36c-.83,0-1.3-.96-.79-1.62l14.97-19.04-14.97-19.04c-.52-.66-.05-1.62.79-1.62h7.36c.31,0,.6.14.79.38Z"/>
    <path class="cls-1" d="M616.38,289.8l-6.27-12.28c-.17-.33-.51-.55-.89-.55h-6.46c-.38,0-.72.21-.89.55l-20.07,39.31c-.34.67.14,1.45.89,1.45h6.1c.38,0,.72-.21.89-.55l3.45-6.76h25.71l3.45,6.76c.17.33.51.55.89.55h6.1c.75,0,1.23-.79.89-1.45l-12.58-24.65c-.03-.06-.07-.12-.12-.17-.5-.58-.85-1.28-1.04-2.03-.02-.06-.04-.13-.07-.18ZM597.68,302.08l7.42-14.54c.37-.73,1.41-.73,1.78,0l7.42,14.54h-16.62Z"/>
    <rect class="cls-1" x="636.59" y="276.98" width="6.99" height="8.82" rx="1" ry="1"/>
    <rect class="cls-1" x="636.59" y="292.96" width="6.99" height="25.33" rx="1" ry="1"/>
  </g>
</svg>