<?xml version="1.0" encoding="UTF-8"?>
<svg id="Layer_1" data-name="Layer 1" xmlns="http://www.w3.org/2000/svg" viewBox="0 0 841.89 595.28">
  <defs>
    <style>
      .cls-1 {
        fill: #0c2745;
      }

      .cls-2 {
        fill: #22b573;
      }
    </style>
  </defs>
  <path class="cls-2" d="M491.86,259.18l-14.95-14.95s0,.03,0,.05c-.02.12-.05.22-.07.32v.05c-.08.27-.16.53-.25.76-.05.14-.1.27-.16.39-.11.24-.24.48-.4.74-.03.05-.06.11-.09.16-.02.03-.03.06-.05.09l-.96,1.11c-.14.12-.3.25-.46.38l-.07.06c-.05.04-.1.08-.15.12-.02.02-.04.03-.06.05l-.04.03-.05.04c-.08.07-.16.15-.24.23-1.79,1.79-2.79,4.31-2.75,6.93.04,2.61,1.11,5.1,2.94,6.83l.05.05.06.04c.06.04.12.09.18.14.06.05.12.1.18.15.05.04.11.09.17.14.09.07.17.14.25.21l.94,1.09s.04.07.06.1l.06.12c.18.28.31.52.42.75.06.12.1.26.15.39.09.24.17.5.24.77.03.13.06.25.09.37.09.47.12.84.12,1.2,0,1.76-.69,3.42-1.93,4.66-1.25,1.25-2.9,1.93-4.67,1.94-1.76,0-3.42-.69-4.67-1.93-1.25-1.25-1.93-2.9-1.93-4.66,0-.36.04-.74.12-1.2.02-.12.05-.25.09-.37.07-.26.14-.51.24-.77.05-.13.1-.26.16-.39.11-.23.24-.48.4-.72l.09-.15s.03-.06.05-.08l.98-1.13c.14-.13.31-.26.49-.39l.04-.03c.06-.05.1-.09.15-.13.02-.01.03-.03.05-.04l.05-.04.04-.04c.08-.08.16-.15.24-.23,1.79-1.79,2.79-4.31,2.75-6.93-.04-2.61-1.11-5.1-2.95-6.83l-.05-.05-.06-.04c-.07-.05-.13-.1-.19-.16-.05-.04-.1-.09-.15-.13l-.16-.13c-.1-.07-.19-.15-.28-.24l-.91-1.05-.02-.03-.02-.02s-.11-.2-.11-.2c-.19-.31-.32-.54-.42-.76-.06-.12-.1-.25-.15-.38-.09-.24-.17-.5-.24-.78v-.04c-.04-.11-.07-.21-.09-.33-.08-.45-.12-.83-.12-1.19,0-1.76.69-3.42,1.93-4.67.97-.97,2.19-1.59,3.51-1.83l-36.82-36.82c-6.36-6.36-16.67-6.36-23.03,0l-36.67,36.67c3.02.61,5.29,3.28,5.29,6.47,0,.36-.04.75-.12,1.19-.02.12-.05.22-.07.32v.05c-.08.27-.16.53-.25.76-.05.14-.1.27-.16.39-.11.24-.24.48-.4.74-.03.05-.06.11-.09.16-.02.03-.03.06-.05.09l-.96,1.11c-.14.12-.3.25-.46.38l-.07.06c-.05.04-.1.08-.15.12-.02.02-.04.03-.06.05l-.04.03-.05.04c-.08.07-.16.15-.24.23-1.79,1.79-2.79,4.31-2.75,6.93.04,2.61,1.11,5.1,2.94,6.83l.05.05.06.04c.06.04.12.09.18.14.06.05.12.1.18.15.05.04.11.09.17.14.09.07.17.14.25.21l.94,1.09s.04.07.06.1l.06.12c.18.28.31.52.42.75.06.12.1.26.15.39.09.24.17.5.24.77.03.13.06.25.09.37.09.47.12.84.12,1.2,0,1.76-.69,3.42-1.93,4.66-1.25,1.25-2.9,1.93-4.67,1.94-1.76,0-3.42-.69-4.67-1.93-1.25-1.25-1.93-2.9-1.93-4.66,0-.36.04-.74.12-1.2.02-.12.05-.25.09-.37.07-.26.14-.51.24-.77.05-.13.1-.26.16-.39.11-.23.24-.48.4-.72l.09-.15s.03-.06.05-.08l.98-1.13c.14-.13.31-.26.49-.39l.04-.03c.06-.05.1-.09.15-.13.02-.01.03-.03.05-.04l.05-.04.04-.04c.08-.08.16-.15.24-.23,1.79-1.79,2.79-4.31,2.75-6.93-.04-2.61-1.11-5.1-2.95-6.83l-.05-.05-.06-.04c-.07-.05-.13-.1-.19-.16-.05-.04-.1-.09-.15-.13l-.16-.13c-.1-.07-.19-.15-.28-.24l-.91-1.05-.02-.03-.02-.02s-.11-.2-.11-.2c-.19-.31-.32-.54-.42-.76-.06-.12-.1-.25-.15-.38-.09-.24-.17-.5-.24-.78v-.04c-.03-.07-.05-.15-.06-.23l-14.97,14.97c-6.36,6.36-6.36,16.67,0,23.03l50.05,50.05c-.12-.49-.18-1-.18-1.52,0-.37.04-.75.12-1.19.02-.14.05-.25.08-.38.07-.27.16-.53.24-.77.05-.13.1-.26.16-.39.11-.23.24-.47.4-.74.03-.05.06-.1.09-.15.02-.03.03-.06.05-.09l.97-1.11c.14-.13.3-.25.47-.38l.07-.05s.09-.08.14-.12l.04-.04.06-.04.04-.04c.08-.07.16-.15.23-.22,1.79-1.79,2.8-4.32,2.76-6.94-.04-2.61-1.11-5.1-2.94-6.83l-.05-.05-.07-.05c-.06-.04-.11-.09-.17-.13-.06-.06-.13-.11-.2-.16l-.12-.09c-.1-.08-.2-.16-.29-.24l-.96-1.12s-.04-.06-.05-.1l-.05-.08c-.15-.25-.3-.49-.41-.76-.07-.15-.11-.26-.16-.39-.1-.27-.18-.52-.25-.79-.03-.12-.06-.24-.08-.36-.09-.46-.13-.85-.13-1.2,0-1.01.23-1.98.66-2.86.03-.06.05-.13.08-.19.11-.23.24-.47.4-.74.03-.05.06-.1.09-.15.02-.03.03-.06.05-.09l.97-1.11c.14-.13.3-.25.47-.38l.07-.05s.09-.08.14-.12l.04-.04.06-.04.04-.04c.08-.07.16-.15.23-.22,1.79-1.79,2.8-4.32,2.76-6.94-.03-2.4-.95-4.7-2.53-6.4-.58-.31-1.11-.7-1.58-1.17-1.25-1.25-1.93-2.91-1.93-4.67,0-.37.04-.75.12-1.19.02-.14.05-.25.08-.38.07-.27.16-.53.24-.77.05-.13.1-.26.16-.39.11-.23.24-.47.4-.74.03-.05.06-.1.09-.15.02-.03.03-.06.05-.09l.26-.29c.2-.27.42-.54.66-.78.3-.3.62-.56.96-.79.05-.04.09-.09.14-.13,1.79-1.79,2.8-4.32,2.76-6.94-.04-2.61-1.11-5.1-2.94-6.83l-.05-.05-.07-.05c-.06-.04-.11-.09-.17-.13-.06-.06-.13-.11-.2-.16l-.12-.09c-.1-.08-.2-.16-.29-.24l-.96-1.12s-.04-.06-.05-.1l-.05-.08c-.15-.25-.3-.49-.41-.76-.07-.15-.11-.26-.16-.39-.1-.27-.18-.52-.25-.79-.03-.12-.06-.24-.08-.36-.09-.46-.13-.85-.13-1.2,0-1.01.23-1.98.66-2.86.03-.06.05-.13.08-.19.11-.23.24-.47.4-.74.03-.05.06-.1.09-.15.02-.03.03-.06.05-.09l.97-1.11c.14-.13.3-.25.47-.38l.07-.05s.09-.08.14-.12l.04-.04.06-.04.04-.04c.08-.07.16-.15.23-.22,1.79-1.79,2.8-4.32,2.76-6.94-.04-2.61-1.11-5.1-2.94-6.83l-.05-.05-.07-.05c-.06-.04-.11-.09-.17-.13-.06-.06-.13-.11-.2-.16l-.12-.09c-.1-.08-.2-.16-.29-.24l-.96-1.12s-.04-.06-.05-.1l-.05-.08c-.15-.25-.3-.49-.41-.76-.07-.15-.11-.26-.16-.39-.1-.27-.18-.52-.25-.79-.03-.12-.06-.24-.08-.36-.09-.46-.13-.85-.13-1.2,0-1.76.69-3.42,1.94-4.67s2.9-1.94,4.67-1.94c3.64,0,6.6,2.97,6.6,6.61,0,.37-.04.75-.12,1.19-.02.13-.05.25-.08.37-.07.27-.15.53-.24.77-.05.13-.1.27-.15.39-.11.25-.25.49-.4.73l-.08.14s-.03.07-.05.1l-.97,1.12c-.13.12-.27.23-.43.35l-.1.08s-.09.07-.14.12l-.04.03-.06.04-.04.04c-.08.07-.16.15-.23.22-1.79,1.79-2.8,4.32-2.76,6.94.04,2.61,1.11,5.1,2.94,6.83l.05.05.06.04c.06.04.11.09.17.13.06.06.13.11.2.16.04.03.11.09.18.15.08.06.16.12.23.2l.03.03.92,1.07s.1.17.12.22c.16.27.3.51.41.75.06.13.11.25.15.38.1.26.18.52.25.79.03.11.06.25.08.38.08.43.12.81.12,1.18,0,1-.23,1.97-.65,2.85-.03.07-.05.13-.08.19-.11.25-.25.49-.4.73l-.08.14s-.03.07-.05.1l-.97,1.12c-.13.12-.27.23-.43.35l-.1.08s-.09.07-.14.12l-.04.03-.06.04-.04.04c-.08.07-.16.15-.23.22-1.79,1.79-2.8,4.32-2.76,6.94.03,2.41.96,4.71,2.54,6.41,2.08,1.11,3.5,3.31,3.5,5.83,0,.37-.04.75-.12,1.19-.02.13-.05.25-.08.37-.07.27-.15.53-.24.77-.05.13-.1.27-.15.39-.11.25-.25.49-.4.73l-.08.14s-.03.07-.05.1l-.26.29c-.2.28-.42.55-.67.79h0c-.3.3-.63.57-.97.8-.04.04-.09.08-.13.13-1.79,1.79-2.8,4.32-2.76,6.94.04,2.61,1.11,5.1,2.94,6.83l.05.05.06.04c.06.04.11.09.17.13.06.06.13.11.2.16.04.03.11.09.18.15.08.06.16.12.23.2l.03.03.92,1.07s.1.17.12.22c.16.27.3.51.41.75.06.13.11.25.15.38.1.26.18.52.25.79.03.11.06.25.08.38.08.43.12.81.12,1.18,0,1-.23,1.97-.65,2.85-.03.07-.05.13-.08.19-.11.25-.25.49-.4.73l-.08.14s-.03.07-.05.1l-.97,1.12c-.13.12-.27.23-.43.35l-.1.08s-.09.07-.14.12l-.04.03-.06.04-.04.04c-.08.07-.16.15-.23.22-1.79,1.79-2.8,4.32-2.76,6.94.04,2.61,1.11,5.1,2.94,6.83l.05.05.06.04c.06.04.11.09.17.13.06.06.13.11.2.16.04.03.11.09.18.15.08.06.16.12.23.2l.03.03.92,1.07s.1.17.12.22c.16.27.3.51.41.75.06.13.11.25.15.38.1.26.18.52.25.79.03.11.06.25.08.38.08.43.12.81.12,1.18,0,1.76-.68,3.42-1.93,4.66h0c-1.25,1.25-2.91,1.93-4.67,1.94-.52,0-1.02-.07-1.51-.18l4.45,4.45c1.55,1.55,3.33,2.71,5.23,3.51-.36-.82-.55-1.72-.55-2.64,0-.37.04-.75.12-1.19.02-.14.05-.25.08-.38.07-.27.16-.53.24-.77.05-.13.1-.26.16-.39.11-.23.24-.47.4-.74.03-.05.06-.1.09-.15.02-.03.03-.06.05-.09l.97-1.11c.14-.13.3-.25.47-.38l.07-.05s.09-.08.14-.12l.04-.04.06-.04.04-.04c.08-.07.16-.15.23-.22,1.79-1.79,2.8-4.32,2.76-6.94-.04-2.61-1.11-5.1-2.94-6.83l-.05-.05-.07-.05c-.06-.04-.11-.09-.17-.13-.06-.06-.13-.11-.2-.16l-.12-.09c-.1-.08-.2-.16-.29-.24l-.96-1.12s-.04-.06-.05-.1l-.05-.08c-.15-.25-.3-.49-.41-.76-.07-.15-.11-.26-.16-.39-.1-.27-.18-.52-.25-.79-.03-.12-.06-.24-.08-.36-.09-.46-.13-.85-.13-1.2,0-1.01.23-1.98.66-2.86.03-.06.05-.13.08-.19.11-.23.24-.47.4-.74.03-.05.06-.1.09-.15.02-.03.03-.06.05-.09l.97-1.11c.14-.13.3-.25.47-.38l.07-.05s.09-.08.14-.12l.04-.04.06-.04.04-.04c.08-.07.16-.15.23-.22,1.79-1.79,2.8-4.32,2.76-6.94-.03-2.4-.95-4.7-2.53-6.4-.58-.31-1.11-.7-1.58-1.17-1.25-1.25-1.93-2.91-1.93-4.67,0-.37.04-.75.12-1.19.02-.14.05-.25.08-.38.07-.27.16-.53.24-.77.05-.13.1-.26.16-.39.11-.23.24-.47.4-.74.03-.05.06-.1.09-.15.02-.03.03-.06.05-.09l.26-.3c.2-.27.42-.54.66-.78.3-.3.62-.56.96-.79.05-.04.09-.09.14-.13,1.79-1.79,2.8-4.32,2.76-6.94-.04-2.61-1.11-5.1-2.94-6.83l-.05-.05-.07-.05c-.06-.04-.11-.09-.17-.13-.06-.06-.13-.11-.2-.16l-.12-.09c-.1-.08-.2-.16-.29-.24l-.96-1.12s-.04-.06-.05-.1l-.05-.08c-.15-.25-.3-.49-.41-.76-.07-.15-.11-.26-.16-.39-.1-.27-.18-.52-.25-.79-.03-.12-.06-.24-.08-.36-.09-.46-.13-.85-.13-1.2,0-1.01.23-1.98.66-2.86.03-.06.05-.13.08-.19.11-.23.24-.47.4-.74.03-.05.06-.1.09-.15.02-.03.03-.06.05-.09l.97-1.11c.14-.13.3-.25.47-.38l.07-.05s.09-.08.14-.12l.04-.04.06-.04.04-.04c.08-.07.16-.15.23-.22,1.79-1.79,2.8-4.32,2.76-6.94-.04-2.61-1.11-5.1-2.94-6.83l-.05-.05-.07-.05c-.06-.04-.11-.09-.17-.13-.06-.06-.13-.11-.2-.16l-.12-.09c-.1-.08-.2-.16-.29-.24l-.96-1.12s-.04-.06-.05-.1l-.05-.08c-.15-.25-.3-.49-.41-.76-.07-.15-.11-.26-.16-.39-.1-.27-.18-.52-.25-.79-.03-.12-.06-.24-.08-.36-.09-.46-.13-.85-.13-1.2,0-1.76.69-3.42,1.94-4.67s2.9-1.94,4.67-1.94c3.64,0,6.6,2.97,6.6,6.61,0,.37-.04.75-.12,1.19-.02.13-.05.25-.08.37-.07.27-.15.53-.24.77-.05.13-.1.27-.15.39-.11.25-.25.49-.4.73l-.08.14s-.04.07-.05.1l-.97,1.12c-.13.12-.27.23-.43.35l-.1.08s-.09.07-.14.12l-.04.03-.06.04-.04.04c-.08.07-.16.15-.23.22-1.79,1.79-2.8,4.32-2.76,6.94.04,2.61,1.11,5.1,2.94,6.83l.05.05.06.04c.06.04.11.09.17.13.06.06.13.11.2.16.04.03.11.09.18.15.08.06.16.12.23.2l.03.03.92,1.07s.1.17.12.22c.16.27.3.51.41.75.06.13.11.25.15.38.1.26.18.52.25.79.03.11.06.25.08.38.08.43.12.81.12,1.18,0,1-.23,1.97-.65,2.85-.03.07-.05.13-.08.19-.11.25-.25.49-.4.73l-.08.14s-.03.07-.05.1l-.97,1.12c-.13.12-.27.23-.43.35l-.1.08s-.09.07-.14.12l-.04.03-.06.04-.04.04c-.08.07-.16.15-.23.22-1.79,1.79-2.8,4.32-2.76,6.94.03,2.41.96,4.71,2.54,6.41,2.08,1.11,3.5,3.31,3.5,5.83,0,.37-.04.75-.12,1.19-.02.13-.05.25-.08.37-.07.27-.15.53-.24.77-.05.13-.1.27-.15.39-.11.25-.25.49-.4.73l-.08.14s-.04.07-.05.1l-.26.29c-.2.28-.42.55-.67.79h0c-.3.3-.63.57-.97.8-.04.04-.09.08-.13.13-1.79,1.79-2.8,4.32-2.76,6.94.04,2.61,1.11,5.1,2.94,6.83l.05.05.06.04c.06.04.11.09.17.13.06.06.13.11.2.16.04.03.11.09.18.15.08.06.16.12.23.2l.03.03.92,1.07s.1.17.12.22c.16.27.3.51.41.75.06.13.11.25.15.38.1.26.18.52.25.79.03.11.06.25.08.38.08.43.12.81.12,1.18,0,1-.23,1.97-.65,2.85-.03.07-.05.13-.08.19-.11.25-.25.49-.4.73l-.08.14s-.03.07-.05.1l-.97,1.12c-.13.12-.27.23-.43.35l-.1.08s-.09.07-.14.12l-.04.03-.06.04-.04.04c-.08.07-.16.15-.23.22-1.79,1.79-2.8,4.32-2.76,6.94.04,2.61,1.11,5.1,2.94,6.83l.05.05.06.04c.06.04.11.09.17.13.06.06.13.11.2.16.04.03.11.09.18.15.08.06.16.12.23.2l.03.03.92,1.07s.1.17.12.22c.16.27.3.51.41.75.06.13.11.25.15.38.1.26.18.52.25.79.03.11.06.25.08.38.08.43.12.81.12,1.18,0,1.01-.23,1.98-.66,2.87,2.12-.79,4.11-2.03,5.81-3.74l4.65-4.65c-.7.24-1.43.38-2.19.38-1.76,0-3.42-.69-4.67-1.93-1.25-1.25-1.93-2.91-1.93-4.67,0-.37.04-.75.12-1.19.02-.14.05-.25.08-.38.07-.27.16-.53.24-.77.05-.13.1-.26.16-.39.11-.23.24-.47.4-.74.03-.05.06-.1.09-.15.02-.03.03-.06.05-.09l.97-1.11c.14-.13.3-.25.46-.38l.07-.05s.09-.08.14-.12l.04-.04.06-.04.04-.04c.08-.07.16-.15.23-.22,1.79-1.79,2.8-4.32,2.76-6.94-.04-2.61-1.11-5.1-2.94-6.83l-.05-.05-.07-.05c-.06-.04-.11-.09-.17-.13-.06-.06-.13-.11-.2-.16l-.12-.09c-.1-.08-.2-.16-.29-.24l-.96-1.12s-.04-.06-.05-.1l-.05-.08c-.15-.25-.3-.49-.41-.76-.07-.15-.11-.26-.16-.39-.1-.27-.18-.52-.25-.79-.03-.12-.06-.24-.08-.36-.09-.46-.13-.85-.13-1.2,0-1.01.23-1.98.66-2.86.03-.06.05-.13.08-.19.11-.23.24-.47.4-.74.03-.05.06-.1.09-.15.02-.03.03-.06.05-.09l.97-1.11c.14-.13.3-.25.47-.38l.07-.05s.09-.08.14-.12l.04-.04.06-.04.04-.04c.08-.07.16-.15.23-.22,1.79-1.79,2.8-4.32,2.76-6.94-.03-2.4-.95-4.7-2.53-6.4-.58-.31-1.11-.7-1.58-1.17-1.25-1.25-1.93-2.91-1.93-4.67,0-.37.04-.75.12-1.19.02-.14.05-.25.08-.38.07-.27.16-.53.24-.77.05-.13.1-.26.16-.39.11-.23.24-.47.4-.74.03-.05.06-.1.09-.15.02-.03.03-.06.05-.09l.26-.29c.2-.27.42-.54.66-.78.3-.3.62-.56.96-.79.05-.04.09-.09.14-.13,1.79-1.79,2.8-4.32,2.76-6.94-.04-2.61-1.11-5.1-2.94-6.83l-.05-.05-.07-.05c-.06-.04-.11-.09-.17-.13-.06-.06-.13-.11-.2-.16l-.12-.09c-.1-.08-.2-.16-.29-.24l-.96-1.12s-.04-.06-.05-.1l-.05-.08c-.15-.25-.3-.49-.41-.76-.07-.15-.11-.26-.16-.39-.1-.27-.18-.52-.25-.79-.03-.12-.06-.24-.08-.36-.09-.46-.13-.85-.13-1.2,0-1.01.23-1.98.66-2.86.03-.06.05-.13.08-.19.11-.23.24-.47.4-.74.03-.05.06-.1.09-.15.02-.03.03-.06.05-.09l.97-1.11c.14-.13.3-.25.47-.38l.07-.05s.09-.08.14-.12l.04-.04.06-.04.04-.04c.08-.07.16-.15.23-.22,1.79-1.79,2.8-4.32,2.76-6.94-.04-2.61-1.11-5.1-2.94-6.83l-.05-.05-.07-.05c-.06-.04-.11-.09-.17-.13-.06-.06-.13-.11-.2-.16l-.12-.09c-.1-.08-.2-.16-.29-.24l-.96-1.12s-.04-.06-.05-.1l-.05-.08c-.15-.25-.3-.49-.41-.76-.07-.15-.11-.26-.16-.39-.1-.27-.18-.52-.25-.79-.03-.12-.06-.24-.08-.36-.09-.46-.13-.85-.13-1.2,0-1.76.69-3.42,1.94-4.67,1.25-1.25,2.9-1.94,4.67-1.94,3.64,0,6.6,2.97,6.6,6.61,0,.37-.04.75-.12,1.19-.02.13-.05.25-.08.37-.07.27-.15.53-.24.77-.05.13-.1.27-.15.39-.11.25-.25.49-.4.73l-.08.14s-.03.07-.05.1l-.97,1.12c-.13.12-.27.23-.43.35l-.1.08s-.09.07-.14.12l-.04.03-.06.04-.04.04c-.08.07-.16.15-.23.22-1.79,1.79-2.8,4.32-2.76,6.94.04,2.61,1.11,5.1,2.94,6.83l.05.05.06.04c.06.04.11.09.17.13.06.06.13.11.2.16.04.03.11.09.18.15.08.06.16.12.23.2l.03.03.92,1.07s.1.17.12.22c.16.27.3.51.41.75.06.13.11.25.15.38.1.26.18.52.25.79.03.11.06.25.08.38.08.43.12.81.12,1.18,0,1-.23,1.97-.65,2.85-.03.07-.05.13-.08.19-.11.25-.25.49-.4.73l-.08.14s-.03.07-.05.1l-.97,1.12c-.13.12-.27.23-.43.35l-.1.08s-.09.07-.14.12l-.04.03-.06.04-.04.04c-.08.07-.16.15-.23.22-1.79,1.79-2.8,4.32-2.76,6.94.03,2.41.96,4.71,2.54,6.41,2.08,1.11,3.5,3.31,3.5,5.83,0,.37-.04.75-.12,1.19-.02.13-.05.25-.08.37-.07.27-.15.53-.24.77-.05.13-.1.27-.15.39-.11.25-.25.49-.4.73l-.08.14s-.03.07-.05.1l-.26.29c-.2.28-.42.55-.67.79h0c-.3.3-.63.57-.97.8-.04.04-.09.08-.13.13-1.79,1.79-2.8,4.32-2.76,6.94.04,2.61,1.11,5.1,2.94,6.83l.05.05.06.04c.06.04.11.09.17.13.06.06.13.11.2.16.04.03.11.09.18.15.08.06.16.12.23.2l.03.03.92,1.07s.1.17.12.22c.16.27.3.51.41.75.06.13.11.25.15.38.1.26.18.52.25.79.03.11.06.25.08.38.08.43.12.81.12,1.18,0,1-.23,1.97-.65,2.85-.03.07-.05.13-.08.19-.11.25-.25.49-.4.73l-.08.14s-.03.07-.05.1l-.97,1.12c-.13.12-.27.23-.43.35l-.1.08s-.09.07-.14.12l-.04.03-.06.04-.04.04c-.08.07-.16.15-.23.22-1.79,1.79-2.8,4.32-2.76,6.94.04,2.61,1.11,5.1,2.94,6.83l.05.05.06.04c.06.04.11.09.17.13.06.06.13.11.2.16.04.03.11.09.18.15.08.06.16.12.23.2l.03.03.92,1.07s.1.17.12.22c.16.27.3.51.41.75.06.13.11.25.15.38.1.26.18.52.25.79.03.11.06.25.08.38.08.43.12.81.12,1.18,0,.76-.13,1.49-.38,2.19l50.72-50.72c6.36-6.36,6.36-16.67,0-23.03ZM377.9,260.26c-1.25-1.25-1.93-2.9-1.93-4.66,0-1.77.69-3.42,1.93-4.67s2.9-1.93,4.66-1.93c1.76,0,3.42.69,4.67,1.93,1.25,1.25,1.93,2.9,1.93,4.67,0,1.76-.69,3.42-1.93,4.66-1.25,1.25-2.91,1.93-4.67,1.93-1.76,0-3.42-.69-4.67-1.93ZM400.24,243.09c0,.36-.04.75-.12,1.19-.02.12-.05.22-.07.32v.05c-.08.27-.16.53-.25.76-.05.14-.1.27-.16.39-.11.24-.24.48-.4.74-.03.05-.06.11-.09.16-.02.03-.03.06-.05.09l-.96,1.11c-.14.12-.3.25-.46.38l-.07.06c-.05.04-.1.08-.15.12-.02.02-.04.03-.06.05l-.04.03-.05.04c-.08.07-.16.15-.24.23-1.79,1.79-2.79,4.31-2.75,6.93.04,2.61,1.11,5.1,2.94,6.83l.05.05.06.04c.06.04.12.09.18.14.06.05.12.1.18.15.05.04.11.09.17.14.09.07.17.14.25.21l.94,1.09s.04.07.06.1l.06.12c.18.28.31.52.42.75.06.12.1.26.15.39.09.24.17.5.24.77.03.13.06.25.09.37.09.47.12.84.12,1.2,0,1.76-.69,3.42-1.93,4.66-1.25,1.25-2.9,1.93-4.67,1.94-1.76,0-3.42-.69-4.67-1.93-1.25-1.25-1.93-2.9-1.93-4.66,0-.36.04-.74.12-1.2.02-.12.05-.25.09-.37.07-.26.14-.51.24-.77.05-.13.1-.26.16-.39.11-.23.24-.48.4-.72l.09-.15s.03-.06.05-.08l.98-1.13c.14-.13.31-.26.49-.39l.04-.03c.06-.05.1-.09.15-.13.02-.01.03-.03.05-.04l.05-.04.04-.04c.08-.08.16-.15.24-.23,1.79-1.79,2.79-4.31,2.75-6.93-.04-2.61-1.11-5.1-2.95-6.83l-.05-.05-.06-.04c-.07-.05-.13-.1-.19-.16-.05-.04-.1-.09-.15-.13l-.16-.13c-.1-.07-.19-.15-.28-.24l-.91-1.05-.02-.03-.02-.02s-.11-.2-.11-.2c-.19-.31-.32-.54-.42-.76-.06-.12-.1-.25-.15-.38-.09-.24-.17-.5-.24-.78v-.04c-.04-.11-.07-.21-.09-.33-.08-.45-.12-.83-.12-1.19,0-1.76.69-3.42,1.93-4.67s2.9-1.93,4.67-1.93c3.64,0,6.6,2.96,6.6,6.6ZM452.92,272.58c-1.25,1.25-2.9,1.93-4.67,1.94-1.76,0-3.42-.69-4.67-1.93-1.25-1.25-1.93-2.9-1.93-4.66,0-.36.04-.74.12-1.2.02-.12.05-.25.09-.37.07-.26.14-.51.24-.77.05-.13.1-.26.16-.39.11-.23.24-.48.4-.72l.09-.15s.03-.06.05-.08l.98-1.13c.14-.13.31-.26.49-.39l.04-.03c.06-.05.1-.09.15-.13.02-.01.03-.03.05-.04l.05-.04.04-.04c.08-.08.16-.15.24-.23,1.79-1.79,2.79-4.31,2.75-6.93-.04-2.61-1.11-5.1-2.95-6.83l-.05-.05-.06-.04c-.07-.05-.13-.1-.19-.16-.05-.04-.1-.09-.15-.13l-.16-.13c-.1-.07-.19-.15-.28-.24l-.91-1.05-.02-.03-.02-.02s-.11-.2-.11-.2c-.19-.31-.32-.54-.42-.76-.06-.12-.1-.25-.15-.38-.09-.24-.17-.5-.24-.78v-.04c-.04-.11-.07-.21-.09-.33-.08-.45-.12-.83-.12-1.19,0-1.76.69-3.42,1.93-4.67,1.25-1.25,2.9-1.93,4.67-1.93,3.64,0,6.6,2.96,6.6,6.6,0,.36-.04.75-.12,1.19-.02.12-.05.22-.07.32v.05c-.08.27-.16.53-.25.76-.05.14-.1.27-.16.39-.11.24-.24.48-.4.74-.03.05-.06.11-.09.16-.02.03-.03.06-.05.09l-.96,1.11c-.14.12-.3.25-.46.38l-.07.06c-.05.04-.1.08-.15.12-.02.02-.04.03-.06.05l-.04.03-.05.04c-.08.07-.16.15-.24.23-1.79,1.79-2.79,4.31-2.75,6.93.04,2.61,1.11,5.1,2.94,6.83l.05.05.06.04c.06.04.12.09.18.14.06.05.12.1.18.15.05.04.11.09.17.14.09.07.17.14.25.21l.94,1.09s.04.07.06.1l.06.12c.18.28.31.52.42.75.06.12.1.26.15.39.09.24.17.5.24.77.03.13.06.25.09.37.09.47.12.84.12,1.2,0,1.76-.69,3.42-1.93,4.66ZM454.69,260.26c-1.25-1.25-1.93-2.9-1.93-4.66,0-1.77.69-3.42,1.93-4.67,1.25-1.25,2.9-1.93,4.66-1.93,1.76,0,3.42.69,4.67,1.93,1.25,1.25,1.93,2.9,1.93,4.67,0,1.76-.69,3.42-1.93,4.66-1.25,1.25-2.91,1.93-4.67,1.93-1.76,0-3.42-.69-4.67-1.93Z"/>
  <g>
    <path class="cls-1" d="M285.32,374.05v-5.41c0-.43.35-.78.78-.78h29.69c.43,0,.78.35.78.78v5.41c0,.43-.35.78-.78.78h-12.1v24.64c0,.43-.35.78-.78.78h-3.92c-.43,0-.78-.35-.78-.78v-24.64h-12.1c-.43,0-.78-.35-.78-.78Z"/>
    <path class="cls-1" d="M321.81,367.86h26.75c.43,0,.78.35.78.78v5.41c0,.43-.35.78-.78.78h-26.75c-.43,0-.78-.35-.78-.78v-5.41c0-.43.35-.78.78-.78ZM321.81,380.57h26.75c.43,0,.78.35.78.78v5.41c0,.43-.35.78-.78.78h-26.75c-.43,0-.78-.35-.78-.78v-5.41c0-.43.35-.78.78-.78ZM321.81,393.28h26.75c.43,0,.78.35.78.78v5.41c0,.43-.35.78-.78.78h-26.75c-.43,0-.78-.35-.78-.78v-5.41c0-.43.35-.78.78-.78Z"/>
    <path class="cls-1" d="M378.1,367.86h3.92c.43,0,.78.35.78.78v30.84c0,.43-.35.78-.78.78h-4.69l-.02-.02-18.03-22.57v21.81c0,.43-.35.78-.78.78h-3.92c-.43,0-.78-.35-.78-.78v-30.84c0-.43.35-.78.78-.78h4.69v.02s18.04,22.57,18.04,22.57v-21.81c0-.43.35-.78.78-.78Z"/>
    <path class="cls-1" d="M392.75,367.86h19.12c4.29,0,7.8,4.47,7.8,9.92v12.56c0,5.46-3.51,9.93-7.8,9.93h-9.08s-2.01,0-2.01,0h-13.52v-6.19c0-.43.35-.78.78-.78h23.83c1.27,0,2.32-1.32,2.32-2.94v-12.56c0-1.62-1.04-2.94-2.32-2.94h-11.09s-8.04,0-8.04,0h-4.7c-.43,0-.78-.35-.78-.78v-5.41c0-.43.35-.78.78-.78h4.7Z"/>
    <path class="cls-1" d="M424.9,367.86h26.75c.43,0,.78.35.78.78v5.41c0,.43-.35.78-.78.78h-26.75c-.43,0-.78-.35-.78-.78v-5.41c0-.43.35-.78.78-.78ZM424.9,380.57h26.75c.43,0,.78.35.78.78v5.41c0,.43-.35.78-.78.78h-26.75c-.43,0-.78-.35-.78-.78v-5.41c0-.43.35-.78.78-.78ZM424.9,393.28h26.75c.43,0,.78.35.78.78v5.41c0,.43-.35.78-.78.78h-26.75c-.43,0-.78-.35-.78-.78v-5.41c0-.43.35-.78.78-.78Z"/>
    <path class="cls-1" d="M464.89,368.16l8.62,10.97,8.62-10.97c.15-.19.38-.3.62-.3h5.77c.65,0,1.02.75.62,1.27l-11.74,14.94,11.74,14.94c.4.51.04,1.27-.62,1.27h-5.77c-.24,0-.47-.11-.62-.3l-8.62-10.97-8.62,10.97c-.15.19-.38.3-.62.3h-5.77c-.65,0-1.02-.75-.62-1.27l11.74-14.94-11.74-14.94c-.4-.51-.04-1.27.62-1.27h5.77c.24,0,.47.11.62.3Z"/>
    <path class="cls-1" d="M535.23,377.91l-4.92-9.63c-.13-.26-.4-.43-.7-.43h-5.07c-.29,0-.56.17-.7.43l-15.74,30.84c-.27.52.11,1.14.7,1.14h4.79c.29,0,.56-.17.7-.43l2.71-5.31h20.17l2.71,5.31c.13.26.4.43.7.43h4.79c.59,0,.97-.62.7-1.14l-9.87-19.33s-.06-.09-.09-.13c-.39-.46-.66-1.01-.81-1.6-.01-.05-.03-.1-.05-.14ZM520.56,387.55l5.82-11.4c.29-.57,1.11-.57,1.4,0l5.82,11.4h-13.04Z"/>
    <rect class="cls-1" x="551.09" y="367.86" width="5.49" height="6.92" rx=".78" ry=".78"/>
    <rect class="cls-1" x="551.09" y="380.39" width="5.49" height="19.87" rx=".78" ry=".78"/>
  </g>
</svg>